<?xml version="1.0" encoding="UTF-8" standalone="no"?>
<svg width="132px" height="80px" viewBox="0 0 132 80" version="1.1" xmlns="http://www.w3.org/2000/svg" xmlns:xlink="http://www.w3.org/1999/xlink">
    <!-- Generator: Sketch 50 (54983) - http://www.bohemiancoding.com/sketch -->
    <title>长轴距E级轿车</title>
    <desc>Created with Sketch.</desc>
    <defs></defs>
    <g id="Page-1" stroke="none" stroke-width="1" fill="none" fill-rule="evenodd">
        <g id="S-Class-Headline&amp;Subheadline-D" transform="translate(-21.000000, 0.000000)" fill="#FFFFFF">
            <g id="长轴距E级轿车" transform="translate(14.000000, 0.000000)">
                <rect id="Rectangle-Copy-6" x="58" y="79" width="30" height="1"></rect>
                <path d="M27.4864234,8.671875 L27.4864234,2.71484375 L27.4278297,0.419921875 C27.447361,0.387369629 27.4668921,0.364583398 27.4864234,0.3515625 L27.7207984,0.439453125 L29.1172828,0.9375 C29.1823873,0.963541797 29.2263322,0.994465967 29.2491187,1.03027344 C29.2719053,1.06608091 29.2865536,1.10839819 29.293064,1.15722656 C29.2995745,1.20605493 29.2507469,1.28580674 29.1465797,1.39648438 L28.6973609,1.88476562 L28.6973609,6.70898438 C29.973409,5.72590654 30.9825135,4.87305049 31.7247047,4.15039062 C32.4668959,3.42773076 32.9747033,2.88411641 33.2481422,2.51953125 L33.7754859,1.8359375 L33.9415015,1.6015625 C33.9545224,1.5885416 33.964288,1.58040366 33.9707984,1.57714844 C33.9773089,1.57389321 34.0228813,1.62109326 34.1075172,1.71875 L35.3770484,3.23242188 C35.4421529,3.31054727 35.4714495,3.38541631 35.464939,3.45703125 C35.4584286,3.54166709 35.3965803,3.5937499 35.2793922,3.61328125 L34.8790015,3.69140625 C32.4180517,5.26042451 30.8653329,6.18814961 30.2207984,6.47460938 L28.6973609,7.1875 L28.6973609,8.671875 L34.9375953,8.671875 L35.8457984,7.39257812 C35.9043925,7.30794229 35.941827,7.26725259 35.9581031,7.27050781 C35.9743792,7.27376304 36.0053034,7.30143203 36.0508765,7.35351562 L37.1934547,8.84765625 C37.2650696,8.94531299 37.3008765,9.02018203 37.3008765,9.07226562 C37.2878556,9.14388057 37.2357728,9.1796875 37.1446265,9.1796875 L31.3438453,9.1796875 C31.3698871,9.27083379 31.4024388,9.39778564 31.4415015,9.56054688 C31.4805642,9.72330811 31.568454,10.027667 31.7051734,10.4736328 C31.8418929,10.9195986 32.2439071,11.5722613 32.9112281,12.4316406 C33.5785492,13.2910199 34.1416946,13.9127585 34.6006812,14.296875 C35.0596679,14.6809915 35.5039994,15.0032539 35.933689,15.2636719 C36.3633787,15.5240898 36.6693652,15.6803383 36.8516578,15.7324219 L37.3106422,15.8691406 C37.4082989,15.9016929 37.455499,15.9619136 37.4522437,16.0498047 C37.4489885,16.1376958 37.4082988,16.1848958 37.3301734,16.1914062 L36.9004859,16.2597656 C36.7312142,16.2923179 36.5277658,16.3769524 36.2901344,16.5136719 C36.052503,16.6503913 35.8523096,16.8033846 35.6895484,16.9726562 L35.464939,17.2070312 L35.2989234,17.3925781 C35.2598607,17.3990886 35.2077779,17.369792 35.1426734,17.3046875 L34.8204078,17.03125 C34.0651957,16.3802051 33.4109054,15.6217491 32.8575172,14.7558594 C32.304129,13.8899696 31.9151355,13.1233757 31.690525,12.4560547 C31.4659145,11.7887336 31.3047833,11.1783882 31.2071265,10.625 C31.1094698,10.0716118 31.0443663,9.5898458 31.011814,9.1796875 L28.6973609,9.1796875 L28.6973609,15.1367188 C29.9278358,14.5637992 30.7676712,14.1373712 31.2168922,13.8574219 L31.8614234,13.4667969 C31.9069966,13.4407551 31.9460587,13.4440103 31.9786109,13.4765625 C32.0111632,13.5091147 32.0258115,13.5498044 32.0225562,13.5986328 C32.019301,13.6474612 32.0046527,13.6881509 31.9786109,13.7207031 L31.4219703,14.3066406 C31.4154598,14.3131511 31.0720388,14.6549445 30.3916969,15.3320312 C29.7113549,16.009118 29.1465819,16.60156 28.6973609,17.109375 L28.121189,17.7636719 L27.9161109,18.0078125 C27.8900691,17.9947916 27.8542622,17.9361984 27.808689,17.8320312 L27.1348609,16.2597656 C27.0957982,16.1816402 27.0746396,16.1344402 27.0713844,16.1181641 C27.0681291,16.1018879 27.0697567,16.0872396 27.0762672,16.0742188 C27.0762672,16.0611979 27.0795223,16.0514323 27.0860328,16.0449219 C27.0925432,16.0384114 27.1218398,16.0172528 27.1739234,15.9814453 C27.226007,15.9456378 27.2780898,15.8789067 27.3301734,15.78125 C27.382257,15.6835933 27.4213191,15.585938 27.4473609,15.4882812 C27.4734027,15.3906245 27.4864234,15.1302104 27.4864234,14.7070312 L27.4864234,9.1796875 L25.1719703,9.1796875 C25.0678031,9.1796875 25.0108375,9.09505293 25.0010719,8.92578125 C24.9913062,8.75650957 25.0482718,8.671875 25.1719703,8.671875 L27.4864234,8.671875 Z M50.4190016,16.2792969 L46.3857984,16.2792969 L46.3857984,17.3730469 C46.3857984,17.5944021 46.2409431,17.7506506 45.9512281,17.8417969 C45.6615131,17.9329432 45.4857336,17.9313156 45.4238844,17.8369141 C45.3620351,17.7425125 45.3246006,17.6627607 45.3115797,17.5976563 L45.3701734,15.3808594 L45.3701734,6.49414063 L45.3115797,4.84375 C45.3506424,4.79817686 45.3929597,4.7916665 45.4385328,4.82421875 L46.4834547,5.63476563 L47.8408766,5.63476563 L47.8408766,2.265625 L47.7822828,0.625 C47.8083246,0.579426855 47.8311108,0.550130273 47.8506422,0.537109375 L48.0361891,0.60546875 L49.2275953,1.04492188 C49.2731685,1.06445322 49.2975823,1.10351533 49.3008375,1.16210938 C49.3040927,1.22070342 49.2796789,1.27929658 49.2275953,1.33789063 L48.9053297,1.71875 L48.9053297,5.63476563 L50.3213453,5.63476563 L50.6826734,4.98046875 C50.7607988,4.83723887 50.8112541,4.77050776 50.8340406,4.78027344 C50.8568272,4.79003911 50.9235583,4.84374951 51.0342359,4.94140625 L51.8838453,5.80078125 C52.0010334,5.92447979 52.0514886,6.02701782 52.0352125,6.10839844 C52.0189364,6.18977905 51.9880122,6.25325498 51.9424391,6.29882813 L51.5811109,6.66015625 L51.5811109,15.15625 L51.6299391,17.0117188 C51.6169182,17.0833337 51.5827388,17.1923821 51.5274,17.3388672 C51.4720612,17.4853523 51.2930265,17.5683593 50.9902906,17.5878906 C50.6875547,17.607422 50.516658,17.5813806 50.4775953,17.5097656 C50.4385326,17.4381507 50.4190016,17.3404954 50.4190016,17.2167969 L50.4190016,16.2792969 Z M47.8408766,10.3515625 L47.8408766,6.171875 L46.3857984,6.171875 L46.3857984,10.3515625 L47.8408766,10.3515625 Z M47.8408766,15.7519531 L47.8408766,10.8789062 L46.3857984,10.8789062 L46.3857984,15.7519531 L47.8408766,15.7519531 Z M50.4190016,10.3515625 L50.4190016,6.171875 L48.9053297,6.171875 L48.9053297,10.3515625 L50.4190016,10.3515625 Z M50.4190016,15.7519531 L50.4190016,10.8789062 L48.9053297,10.8789062 L48.9053297,15.7519531 L50.4190016,15.7519531 Z M43.9248609,3.87695313 L44.3838453,2.93945313 C44.4359289,2.83528594 44.4733634,2.77506519 44.49615,2.75878906 C44.5189366,2.74251294 44.5596263,2.77018193 44.6182203,2.84179688 L45.5654859,4.0234375 C45.6305904,4.11458379 45.6615146,4.19921836 45.6582594,4.27734375 C45.6550042,4.35546914 45.6078041,4.39453125 45.5166578,4.39453125 L42.0791578,4.39453125 C41.9815011,4.8242209 41.7992112,5.53059404 41.5322828,6.51367188 C41.2653544,7.49674971 41.0798094,8.16731592 40.9756422,8.52539063 L42.3037672,8.52539063 L42.3037672,7.15820313 L42.2744703,5.3515625 C42.2940017,5.34505205 42.3818914,5.36783828 42.5381422,5.41992188 L43.7197828,5.83984375 C43.7718664,5.86588555 43.7962802,5.89518213 43.793025,5.92773438 C43.7897698,5.96028662 43.784887,5.99283838 43.7783766,6.02539063 C43.7718661,6.05794287 43.7588454,6.08398428 43.7393141,6.10351563 L43.4072828,6.47460938 L43.4072828,8.52539063 L43.7393141,8.52539063 L44.1299391,7.76367188 C44.2210854,7.5944002 44.3057199,7.56510361 44.3838453,7.67578125 L45.1260328,8.72070313 C45.2171791,8.85091211 45.2432205,8.94042944 45.2041578,8.98925781 C45.1650951,9.03808618 45.126033,9.0625 45.0869703,9.0625 L43.4072828,9.0625 L43.4072828,12.2265625 C43.7262948,12.1289058 43.9671778,12.0507815 44.1299391,11.9921875 L44.7744703,11.7675781 L45.1260328,11.6503906 C45.1976478,11.6308593 45.2367099,11.6650386 45.2432203,11.7529297 C45.2497308,11.8408208 45.2301997,11.9010415 45.1846266,11.9335938 L44.8916578,12.1484375 C44.8525951,12.1744793 44.3578084,12.4934865 43.4072828,13.1054688 L43.4072828,16.0351563 L43.4463453,17.65625 C43.4398349,17.7213545 43.4219314,17.7962235 43.3926344,17.8808594 C43.3633374,17.9654952 43.2835855,18.025716 43.1533766,18.0615234 C43.0231676,18.0973309 42.8652916,18.1184896 42.6797438,18.125 C42.4941959,18.1315104 42.3802648,18.1022139 42.3379469,18.0371094 C42.295629,17.9720049 42.2647048,17.8906255 42.2451734,17.7929688 L42.3037672,15.8398438 L42.3037672,13.8085938 C41.7438686,14.1536476 41.3011647,14.4335927 40.9756422,14.6484375 L40.5264234,14.9511719 L40.2627516,15.1367188 C40.2367098,15.1497396 40.2171787,15.1529948 40.2041578,15.1464844 C40.1911369,15.1399739 40.1585852,15.048829 40.1065016,14.8730469 L39.8428297,13.9355469 L39.6377516,13.2714844 C39.6377516,13.2584635 39.6393792,13.2486979 39.6426344,13.2421875 C39.6458896,13.2356771 39.7451725,13.2096356 39.9404859,13.1640625 L40.4190016,13.0664063 C40.9789002,12.9557286 41.6071491,12.7897146 42.3037672,12.5683594 L42.3037672,9.0625 L40.8291578,9.0625 L40.4190016,9.85351563 C40.366918,9.94466191 40.3327386,9.98860679 40.3164625,9.98535156 C40.3001864,9.98209634 40.2627519,9.93815146 40.2041578,9.85351563 L39.5791578,8.93554688 C39.5400951,8.88346328 39.5205641,8.84440117 39.5205641,8.81835938 C39.5205641,8.79231758 39.5254468,8.76953135 39.5352125,8.75 C39.5449782,8.73046865 39.5986886,8.69466172 39.6963453,8.64257813 C39.7940021,8.59049453 39.8884022,8.43261851 39.9795484,8.16894531 C40.0706947,7.90527212 40.2464742,7.27376802 40.5068922,6.27441406 C40.7673102,5.27506011 40.9105379,4.72005264 40.9365797,4.609375 L40.9756422,4.39453125 L39.6865797,4.39453125 C39.5759021,4.39453125 39.5107985,4.30826909 39.4912672,4.13574219 C39.4717358,3.96321528 39.5368394,3.87695313 39.6865797,3.87695313 L41.0732984,3.87695313 C41.3011642,2.91991709 41.4606678,2.05404033 41.5518141,1.27929688 L41.6299391,0.56640625 L41.6690016,0.029296875 L41.6982984,0 L41.8936109,0.107421875 L43.1729078,0.7421875 C43.2445228,0.787760645 43.28684,0.826822754 43.2998609,0.859375 C43.3128818,0.891927246 43.3177646,0.922851416 43.3145094,0.952148438 C43.3112542,0.981445459 43.2933507,1.01236963 43.2607984,1.04492188 L42.8311109,1.40625 C42.6878811,1.97916953 42.5674396,2.46581831 42.4697828,2.86621094 C42.3721261,3.26660356 42.2874915,3.60351426 42.2158766,3.87695313 L43.9248609,3.87695313 Z M57.3457203,9.86328125 L57.7754078,9.86328125 L58.2539235,9.04296875 C58.2864757,8.98437471 58.3108895,8.95345054 58.3271656,8.95019531 C58.3434418,8.94694009 58.3776211,8.97786426 58.4297047,9.04296875 L59.2402516,10.2050781 C59.2728038,10.2506513 59.2890797,10.2897134 59.2890797,10.3222656 C59.2760588,10.3808597 59.2435071,10.4101562 59.1914235,10.4101562 L57.3457203,10.4101562 L57.3457203,14.5410156 L59.152361,14.1015625 C59.2435072,14.0820312 59.2874521,14.1048174 59.2841969,14.1699219 C59.2809417,14.2350264 59.2500175,14.283854 59.1914235,14.3164062 L58.6933766,14.6191406 C57.3912867,15.406905 56.1998924,16.1035126 55.1191578,16.7089844 L54.5722828,17.0507812 C54.4941574,17.1028648 54.4469574,17.1191407 54.4306813,17.0996094 C54.4144052,17.080078 54.3899913,16.9791676 54.3574391,16.796875 L54.0449391,15.2929688 C54.0384286,15.2799479 54.0351735,15.255534 54.0351735,15.2197266 C54.0351735,15.1839191 54.0384286,15.1595053 54.0449391,15.1464844 C54.0514495,15.126953 54.0774909,15.1139323 54.1230641,15.1074219 L54.5625172,15.0683594 L54.5625172,10.6054688 L54.5332203,8.96484375 C54.5592621,8.9453124 54.5771656,8.93391929 54.5869313,8.93066406 C54.5966969,8.92740884 54.643897,8.93880195 54.7285328,8.96484375 L55.7539235,9.30664062 C55.7994966,9.32617197 55.8287932,9.34570303 55.8418141,9.36523438 C55.854835,9.38476572 55.8597177,9.41243472 55.8564625,9.44824219 C55.8532073,9.48404966 55.8255383,9.53124971 55.7734547,9.58984375 L55.558611,9.85351562 L55.558611,14.9316406 L56.3984547,14.765625 L56.3984547,6.61132812 L55.7734547,6.61132812 L55.7734547,7.20703125 C55.7734547,7.27213574 55.7588064,7.34049443 55.7295094,7.41210938 C55.7002124,7.48372432 55.6009295,7.54231748 55.4316578,7.58789062 C55.2623862,7.63346377 55.1354343,7.65299482 55.0507985,7.64648438 C54.9270999,7.64648438 54.8538585,7.62369814 54.8310719,7.578125 C54.8082853,7.53255186 54.7903819,7.47070352 54.777361,7.39257812 L54.8164235,5.48828125 L54.8164235,2.54882812 L54.7968922,0.99609375 C54.822934,0.976562402 54.8847823,1.00260381 54.9824391,1.07421875 L55.8418141,1.77734375 L57.6191578,1.77734375 L57.9414235,1.18164063 C57.9804862,1.11653613 58.0114103,1.08235679 58.0341969,1.07910156 C58.0569835,1.07584634 58.0879076,1.08723945 58.1269703,1.11328125 L59.1035328,2.02148438 C59.1295746,2.05403662 59.1458505,2.07682285 59.152361,2.08984375 C59.1588714,2.10286465 59.1637542,2.12076812 59.1670094,2.14355469 C59.1702646,2.16634126 59.168637,2.1874999 59.1621266,2.20703125 C59.1556161,2.2265626 59.1295747,2.26236953 59.0840016,2.31445312 L58.761736,2.70507812 L58.761736,5.63476562 L58.7812672,6.74804688 C58.7682463,6.85872451 58.7454601,6.95149702 58.7129078,7.02636719 C58.6803556,7.10123735 58.5664244,7.16959604 58.371111,7.23144531 C58.1757975,7.29329458 58.0260594,7.32096357 57.9218922,7.31445312 C57.7526205,7.30794268 57.667986,7.20703223 57.667986,7.01171875 L57.667986,6.61132812 L57.3457203,6.61132812 L57.3457203,9.86328125 Z M57.667986,6.06445312 L57.667986,2.31445312 L55.7734547,2.31445312 L55.7734547,6.06445312 L57.667986,6.06445312 Z M64.0351735,11.3769531 L60.8613453,11.3769531 L60.8613453,16.3378906 L64.7578297,16.3378906 L65.2558766,15.4296875 C65.2949393,15.3580726 65.3291186,15.3092449 65.3584156,15.2832031 C65.3877127,15.2571613 65.4316575,15.2799476 65.4902516,15.3515625 L66.4863453,16.6699219 C66.4993662,16.6959637 66.5107593,16.7203775 66.520525,16.7431641 C66.5302907,16.7659506 66.536801,16.7936196 66.5400563,16.8261719 C66.5433115,16.8587241 66.5091322,16.875 66.4375172,16.875 L60.8613453,16.875 L60.402361,17.6855469 C60.3567878,17.7636723 60.3112154,17.7734378 60.2656422,17.7148438 L59.3965016,16.7675781 C59.3248866,16.7024736 59.2923349,16.6406253 59.2988453,16.5820312 C59.2988453,16.5299477 59.3313971,16.4713545 59.3965016,16.40625 L59.777361,16.0253906 L59.777361,3.09570313 L59.7285328,1.07421875 L59.777361,1.02539063 L60.011736,1.22070313 L60.949236,1.98242188 L64.386736,1.97265625 L64.9433766,0.966796875 C64.9759288,0.908202832 65.0019702,0.874023486 65.0215016,0.864257813 C65.0410329,0.854492139 65.0768399,0.882161133 65.1289235,0.947265625 L66.1640797,2.3046875 C66.1836111,2.33723975 66.1933766,2.36002598 66.1933766,2.37304688 L66.1933766,2.44140625 C66.1868661,2.48046895 66.1640799,2.5 66.1250172,2.5 L60.8613453,2.5 L60.8613453,5.95703125 L63.9570485,5.95703125 L64.3379078,5.25390625 C64.3444183,5.2473958 64.3541838,5.22298198 64.3672047,5.18066406 C64.3802256,5.13834614 64.4160325,5.13997373 64.4746266,5.18554688 L65.6172047,6.19140625 C65.649757,6.23046895 65.6741708,6.26139312 65.6904469,6.28417969 C65.706723,6.30696626 65.7099782,6.33626284 65.7002125,6.37207031 C65.6904468,6.40787778 65.6692882,6.44205713 65.636736,6.47460938 L65.2558766,6.9140625 L65.2558766,10.6445312 L65.3047047,11.9433594 C65.2721525,12.0605475 65.2298352,12.1663407 65.1777516,12.2607422 C65.125668,12.3551437 65.014992,12.4381507 64.8457203,12.5097656 C64.6764487,12.5813806 64.5136899,12.6139323 64.3574391,12.6074219 C64.2207197,12.6074219 64.1328299,12.5748701 64.0937672,12.5097656 C64.0547045,12.4446611 64.0351735,12.3567714 64.0351735,12.2460938 L64.0351735,11.3769531 Z M64.0351735,10.8496094 L64.0351735,6.49414062 L60.8613453,6.49414062 L60.8613453,10.8496094 L64.0351735,10.8496094 Z M75.8154079,1.47460938 L76.0302516,4.90234375 C76.0367621,5.09765723 75.9944448,5.21647114 75.9032985,5.25878906 C75.8121522,5.30110698 75.734028,5.22786553 75.6689235,5.0390625 L75.4833766,4.55078125 C75.372699,4.27083193 75.2180781,3.94856953 75.0195094,3.58398438 C74.8209407,3.21939922 74.6093543,2.93294375 74.3847438,2.72460938 C74.1601333,2.516275 73.9078572,2.36328174 73.6279079,2.265625 C73.3479585,2.16796826 73.0354617,2.11914062 72.6904079,2.11914062 L71.6064235,2.11914062 C71.2939219,2.11914062 71.1018665,2.15983032 71.0302516,2.24121094 C70.9586367,2.32259155 70.9130642,2.44466064 70.8935329,2.60742188 L70.8935329,8.05664062 L72.5146266,8.05664062 C72.7555132,8.05664062 72.9394307,7.99804746 73.0663844,7.88085938 C73.1933382,7.76367129 73.2909935,7.59602974 73.3593532,7.37792969 C73.4277129,7.15982964 73.4618922,6.87500176 73.4618922,6.5234375 L73.4618922,5.76171875 C73.4618922,5.57942617 73.5335061,5.48339849 73.676736,5.47363281 C73.8199659,5.46386714 73.8915797,5.55989482 73.8915797,5.76171875 L73.8915797,10.8984375 C73.8915797,11.1067719 73.8199659,11.2060547 73.676736,11.1962891 C73.5335061,11.1865234 73.4618922,11.0872405 73.4618922,10.8984375 L73.4618922,10.0292969 C73.4618922,9.67122217 73.4277129,9.39127705 73.3593532,9.18945312 C73.2909935,8.9876292 73.1965934,8.8395187 73.07615,8.74511719 C72.9557067,8.65071567 72.7880652,8.60351562 72.5732204,8.60351562 L70.8935329,8.60351562 L70.8935329,13.8671875 C70.8935329,14.3619816 70.9114363,14.6500647 70.9472438,14.7314453 C70.9830513,14.8128259 71.0481548,14.8860674 71.1425563,14.9511719 C71.2369578,15.0162764 71.3915787,15.0488281 71.6064235,15.0488281 L73.1689235,15.0488281 C73.4423623,15.0488281 73.7125419,14.990235 73.9794704,14.8730469 C74.2463988,14.7558588 74.5084404,14.5491551 74.7656032,14.2529297 C75.0227659,13.9567042 75.2115661,13.6718764 75.3320094,13.3984375 C75.4524527,13.1249986 75.577777,12.8027362 75.707986,12.4316406 L75.8837672,11.9238281 C75.9423613,11.7285146 76.0156027,11.6487628 76.1034938,11.6845703 C76.1913849,11.7203778 76.2288194,11.826171 76.2157985,12.0019531 L75.8837672,15.6640625 L68.6181422,15.6640625 C68.4749123,15.6640625 68.4000433,15.5615245 68.3935329,15.3564453 C68.3870224,15.1513662 68.4618915,15.0488281 68.6181422,15.0488281 L68.9599391,15.0488281 C69.1096794,15.0488281 69.2398865,15.0146488 69.3505641,14.9462891 C69.4612417,14.8779293 69.5475039,14.7786465 69.6093532,14.6484375 C69.6712024,14.5182285 69.7053818,14.2480489 69.7118922,13.8378906 L69.7216579,3.359375 C69.7216579,2.87109131 69.6516716,2.54394614 69.5116969,2.37792969 C69.3717223,2.21191323 69.1878048,2.12565107 68.9599391,2.11914062 L68.5790797,2.109375 C68.4358498,2.109375 68.364236,2.00358179 68.364236,1.79199219 C68.364236,1.58040259 68.439105,1.47460938 68.5888454,1.47460938 L75.8154079,1.47460938 Z M83.6991579,2.6953125 L82.5272829,2.6953125 C82.4166052,2.6953125 82.3515017,2.60742275 82.3319704,2.43164062 C82.312439,2.2558585 82.3775425,2.16796875 82.5272829,2.16796875 L87.1464235,2.16796875 L87.5175173,1.51367187 C87.5500695,1.46158828 87.5728557,1.43066411 87.5858766,1.42089844 C87.5988975,1.41113276 87.6379596,1.43554658 87.7030641,1.49414062 L88.6991579,2.51953125 C88.7382206,2.56510439 88.764262,2.59928374 88.7772829,2.62207031 C88.7903038,2.64485688 88.7968141,2.67415347 88.7968141,2.70996094 C88.7968141,2.74576841 88.7675175,2.78320293 88.7089235,2.82226562 L88.3182985,3.13476563 C88.0318387,4.1894584 87.813742,4.98372129 87.6640016,5.51757813 C87.5142613,6.05143496 87.3482473,6.60481484 87.1659548,7.17773438 L88.2206423,7.17773438 L88.513611,6.66015625 C88.5461632,6.58854131 88.578715,6.55110679 88.6112673,6.54785156 C88.6438195,6.54459634 88.6959023,6.57877568 88.7675173,6.65039063 L89.7440798,7.66601563 C89.7896529,7.71809922 89.8140667,7.74902339 89.8173219,7.75878906 C89.8205772,7.76855474 89.8254599,7.77994785 89.8319704,7.79296875 C89.8384808,7.80598965 89.841736,7.82063794 89.841736,7.83691406 C89.841736,7.85319019 89.8254601,7.877604 89.7929079,7.91015625 L89.451111,8.25195313 C88.8521497,10.6087357 88.3996802,12.0963511 88.0936891,12.7148438 L87.3905641,14.21875 C87.6249403,14.5182307 87.8723337,14.8079413 88.1327516,15.0878906 C88.3931696,15.3678399 88.7024113,15.6103505 89.060486,15.8154297 C89.4185607,16.0205088 89.6854851,16.1490883 89.8612673,16.2011719 L90.3007204,16.3378906 C90.3723353,16.3639324 90.4081423,16.4111325 90.4081423,16.4794922 C90.4081423,16.5478519 90.3723353,16.5983071 90.3007204,16.6308594 L89.919861,16.796875 C89.5357445,16.9726571 89.2525442,17.1809884 89.0702516,17.421875 L88.7675173,17.8320313 C88.7154337,17.9036462 88.6828819,17.9410807 88.669861,17.9443359 C88.6568401,17.9475912 88.6275435,17.9231773 88.5819704,17.8710938 L88.3866579,17.6757813 C87.8202488,17.1028617 87.2408275,16.3248747 86.6483766,15.3417969 C86.3358751,15.6542984 85.9045643,16.0611954 85.3544313,16.5625 C84.8042984,17.0638046 83.9823665,17.4999981 82.888611,17.8710938 L82.4100954,18.0371094 C82.3840536,18.0501303 82.3612674,18.0501303 82.341736,18.0371094 C82.3287151,18.0371094 82.3189496,18.0257163 82.3124391,18.0029297 C82.3059287,17.9801431 82.3010459,17.9492189 82.2977907,17.9101563 C82.2945355,17.8710936 82.3222045,17.8320314 82.3807985,17.7929688 L82.8007204,17.5488281 C83.9465594,16.8912728 85.0468089,15.784513 86.1015016,14.2285156 C85.8541046,13.5514289 85.6099664,12.8190144 85.3690798,12.03125 C85.1281931,11.2434856 84.9719447,10.416671 84.9003298,9.55078125 L84.7343141,7.79296875 C84.6757201,9.02344365 84.5975959,10.1513621 84.4999391,11.1767578 C84.4022824,12.2021536 84.1597718,13.2340443 83.7724001,14.2724609 C83.3850283,15.3108776 82.9000071,16.1295543 82.3173219,16.7285156 C81.7346367,17.327477 81.322857,17.7148429 81.0819704,17.890625 L80.7304079,18.1542969 C80.6392616,18.2194014 80.582296,18.2275393 80.5595094,18.1787109 C80.5367229,18.1298826 80.5269573,18.0859377 80.5302126,18.046875 C80.5334678,18.0078123 80.5546264,17.965495 80.5936891,17.9199219 L80.9647829,17.5097656 C81.2903053,17.1516909 81.6597678,16.653649 82.0731813,16.015625 C82.4865948,15.377601 82.8300159,14.3864 83.1034548,13.0419922 C83.3768936,11.6975844 83.5331421,10.4378314 83.5722048,9.26269531 C83.6112674,8.08755923 83.640564,6.85384761 83.6600954,5.56152344 C83.6796267,4.26919927 83.6893923,3.61328135 83.6893923,3.59375 L83.6991579,2.6953125 Z M87.1366579,2.6953125 L85.1444704,2.6953125 C85.1184286,2.76692744 85.0940148,2.82226543 85.0712282,2.86132812 C85.0484416,2.90039082 84.9784553,2.95572881 84.8612673,3.02734375 C84.8417359,3.63932598 84.8319704,4.09993335 84.8319704,4.40917969 C84.8319704,4.71842603 84.8433635,5.26366797 84.8661501,6.04492188 C84.8889366,6.82617578 85.0126333,7.81249404 85.2372438,9.00390625 C85.4618543,10.1953185 85.7955098,11.2565058 86.2382204,12.1875 L86.6776735,13.125 C86.8078825,12.8190089 86.9494826,12.4755878 87.1024782,12.0947266 C87.2554737,11.7138653 87.4279981,11.1523475 87.6200563,10.4101562 C87.8121146,9.66796504 87.9472044,9.06412993 88.0253298,8.59863281 C88.1034551,8.13313569 88.155538,7.83854229 88.1815798,7.71484375 L86.9999391,7.71484375 L86.716736,8.2421875 C86.658142,8.34635469 86.6190799,8.40006509 86.5995485,8.40332031 C86.5800172,8.40657554 86.5604861,8.39192725 86.5409548,8.359375 L85.7890016,7.36328125 C85.7694703,7.33723945 85.7564496,7.31445322 85.7499391,7.29492188 C85.7434287,7.27539053 85.7401735,7.25097671 85.7401735,7.22167969 C85.7401735,7.19238267 85.7564494,7.1614585 85.7890016,7.12890625 L85.9745485,6.97265625 C86.0331425,6.92708311 86.0754598,6.87662788 86.1015016,6.82128906 C86.1275434,6.76595024 86.1698607,6.6243501 86.2284548,6.39648438 L86.3456423,5.92773438 L87.1366579,2.6953125 Z M78.8163454,6.15234375 L80.7499391,6.62109375 C80.8996795,6.32161309 80.9989623,6.11490942 81.0477907,6.00097656 C81.0966191,5.8870437 81.1926467,5.65104346 81.3358766,5.29296875 L81.7069704,4.3359375 L81.7557985,4.18945313 C81.7688194,4.16992178 81.8078815,4.19270801 81.872986,4.2578125 L83.1034548,5.47851563 C83.1750697,5.55013057 83.2108766,5.61197891 83.2108766,5.6640625 C83.2043662,5.75520879 83.145773,5.81054678 83.0350954,5.83007813 L82.6640016,5.8984375 C81.7655596,7.34375723 81.2121798,8.20637881 81.0038454,8.48632813 L79.4218141,10.6933594 C80.0077546,10.6477862 80.562762,10.6054689 81.0868532,10.5664063 C81.6109444,10.5273436 81.9804068,10.4947918 82.1952516,10.46875 L82.9081423,10.390625 C82.9992885,10.3841146 83.0464886,10.4199215 83.0497438,10.4980469 C83.052999,10.5761723 83.0155645,10.6282551 82.9374391,10.6542969 L82.2538454,10.9179688 C80.7824839,11.4843778 79.8156966,11.8782541 79.3534548,12.0996094 L78.6991579,12.4121094 C78.555928,12.4837243 78.481059,12.5162761 78.4745485,12.5097656 C78.4680381,12.5032552 78.448507,12.4414068 78.4159548,12.3242188 L78.0057985,10.9472656 C77.9797567,10.8626298 77.966736,10.8072918 77.966736,10.78125 C77.9797569,10.7291664 78.0025431,10.6966146 78.0350954,10.6835938 L78.2694704,10.5957031 C78.3866585,10.5566404 78.5445345,10.4589852 78.7431032,10.3027344 C78.9416719,10.1464836 79.3664723,9.43034492 80.0175173,8.15429688 L80.5839235,7.03125 C79.9198577,7.12890674 79.3209053,7.25260342 78.7870485,7.40234375 L78.3378298,7.52929688 L78.2108766,7.56835938 C78.1848348,7.56184893 78.1653038,7.53255234 78.1522829,7.48046875 L77.810486,6.09375 C77.7974651,6.03515596 77.7909548,5.9895835 77.7909548,5.95703125 C77.7909548,5.924479 77.8267617,5.88867207 77.8983766,5.84960938 L78.0741579,5.76171875 C78.3215549,5.63802021 78.6389346,5.10905415 79.0263063,4.17480469 C79.413678,3.24055522 79.7440784,2.29818184 80.0175173,1.34765625 L80.2030641,0.7421875 L80.2518923,0.498046875 C80.2584027,0.485025977 80.2649131,0.475260449 80.2714235,0.46875 L80.3788454,0.556640625 L81.6581423,1.55273438 C81.7492885,1.62434932 81.794861,1.69921836 81.794861,1.77734375 C81.7883506,1.84895869 81.7557988,1.89127598 81.6972048,1.90429688 L81.2675173,2.04101563 C80.4472007,3.45378311 79.6301515,4.82421211 78.8163454,6.15234375 Z M78.6015016,14.7949219 C80.3528125,14.1699187 81.5181654,13.7369804 82.0975954,13.4960937 L82.5956423,13.2910156 C82.6281945,13.2779947 82.6623738,13.2796223 82.6981813,13.2958984 C82.7339888,13.3121746 82.7502647,13.3528643 82.7470094,13.4179687 C82.7437542,13.4830732 82.7160852,13.5351561 82.6640016,13.5742187 L82.2343141,13.9257812 C80.5025346,15.3125069 79.5162164,16.110025 79.2753298,16.3183594 L78.6991579,16.8261719 C78.5949907,16.9238286 78.5380251,16.9694011 78.5282594,16.9628906 C78.5184938,16.9563802 78.5005903,16.9108077 78.4745485,16.8261719 L78.044861,15.3515625 L77.9569704,15.0585937 C77.9504599,15.0260415 77.9569703,14.9967449 77.9765016,14.9707031 L78.0839235,14.9511719 L78.6015016,14.7949219 Z M102.832908,5.18554687 L103.360252,4.21875 C103.444887,4.06900967 103.500225,3.99576821 103.526267,3.99902344 C103.552309,4.00227866 103.604392,4.04947871 103.682517,4.140625 L104.561424,5.2734375 C104.65908,5.40364648 104.701398,5.50781211 104.688377,5.5859375 C104.675356,5.66406289 104.633038,5.703125 104.561424,5.703125 L101.407127,5.703125 C101.504783,5.97656387 101.566632,6.1474606 101.592674,6.21582031 C101.618715,6.28418003 101.753805,6.54133892 101.997947,6.98730469 C102.242089,7.43327046 102.624572,7.86783643 103.145408,8.29101562 C103.666244,8.71419482 104.157775,9.00716064 104.620017,9.16992187 L105.079002,9.3359375 C105.150617,9.3619793 105.184796,9.41080693 105.181541,9.48242187 C105.178285,9.55403682 105.144106,9.60286445 105.079002,9.62890625 L104.81533,9.73632812 C104.561422,9.84700576 104.362857,10.0195301 104.219627,10.2539062 L104.004783,10.6738281 C103.946189,10.7910162 103.897361,10.8463542 103.858299,10.8398437 C103.760642,10.8333333 103.558821,10.6689469 103.25283,10.3466797 C102.946839,10.0244125 102.710838,9.73958457 102.544822,9.4921875 C102.378806,9.24479043 102.207909,8.93717632 102.032127,8.56933594 C101.856345,8.20149556 101.704979,7.83528828 101.578025,7.47070312 C101.451071,7.10611797 101.359926,6.74967622 101.304588,6.40136719 C101.249249,6.05305815 101.211814,5.82031309 101.192283,5.703125 L100.547752,5.703125 C100.482647,5.86588623 100.417544,6.01562432 100.352439,6.15234375 L99.9227517,7.08984375 C99.5842083,7.77344092 99.1415044,8.47167612 98.5946267,9.18457031 C98.0477489,9.8974645 97.5692381,10.4329409 97.1590798,10.7910156 L96.7977517,11.1035156 C96.7066054,11.1881515 96.6545225,11.1832687 96.6415017,11.0888672 C96.6284808,10.9944657 96.6545222,10.9082035 96.7196267,10.8300781 L97.0516579,10.4296875 C97.2209296,10.2278636 97.3967091,9.99023574 97.5790017,9.71679687 C97.7612942,9.44335801 97.9875289,9.02506792 98.2577126,8.46191406 C98.5278962,7.89876021 98.7248344,7.46744941 98.8485329,7.16796875 C98.9722314,6.86848809 99.0747695,6.59017056 99.1561501,6.33300781 C99.2375307,6.07584507 99.307517,5.86588623 99.366111,5.703125 L96.8856423,5.703125 C96.7814751,5.703125 96.7245095,5.61686284 96.7147438,5.44433594 C96.7049782,5.27180903 96.7619437,5.18554687 96.8856423,5.18554687 L99.5321267,5.18554687 C99.551658,5.09440059 99.5858373,4.97070391 99.6346657,4.81445312 C99.6834941,4.65820234 99.7372045,4.47754009 99.7957985,4.27246094 C99.8543926,4.06738179 99.955303,3.62305029 100.098533,2.93945312 C99.0243088,3.1347666 98.3569977,3.23242187 98.0965798,3.23242187 L97.8133767,3.23242187 C97.7157199,3.23242187 97.671775,3.19498735 97.6815407,3.12011719 C97.6913064,3.04524702 97.7222306,2.99804697 97.7743142,2.97851562 L98.2528298,2.83203125 C98.5588209,2.74088496 98.7964487,2.66276074 98.9657204,2.59765625 C99.1349921,2.53255176 99.5923443,2.33561362 100.337791,2.00683594 C101.083237,1.67805825 101.576396,1.43229248 101.817283,1.26953125 L102.442283,0.849609375 C102.494366,0.817057129 102.55296,0.768229492 102.618064,0.703125 C102.683169,0.638020508 102.723858,0.600585986 102.740134,0.590820312 C102.756411,0.581054639 102.839418,0.667316797 102.989158,0.849609375 L103.819236,1.90429687 C103.942935,2.07356855 103.9999,2.17773418 103.990134,2.21679687 C103.980369,2.25585957 103.923403,2.28515615 103.819236,2.3046875 L103.291892,2.40234375 C103.037985,2.45442734 102.688053,2.5276688 102.242088,2.62207031 C101.796122,2.71647183 101.371321,2.78645811 100.967674,2.83203125 L101.631736,3.23242187 C101.657778,3.25846367 101.674054,3.28938784 101.680564,3.32519531 C101.687075,3.36100278 101.654523,3.40169248 101.582908,3.44726562 L101.319236,3.62304687 C101.162985,4.04622607 101.044171,4.36360571 100.962791,4.57519531 C100.88141,4.78678491 100.808169,4.9902334 100.743064,5.18554687 L102.832908,5.18554687 Z M93.8290017,3.44726563 L94.1024392,1.953125 L94.3172829,0.5859375 L94.3563454,0.185546875 C94.3823872,0.166015527 94.4572562,0.185546582 94.5809548,0.244140625 L95.8407204,0.87890625 C95.9058249,0.917968945 95.9416318,0.966796582 95.9481423,1.02539063 C95.9546527,1.08398467 95.9188458,1.14257783 95.8407204,1.20117188 L95.4793923,1.45507813 L95.0204079,3.44726563 L96.4364235,3.44726563 L96.7782204,2.74414063 C96.8498353,2.60742119 96.898663,2.53417974 96.9247048,2.52441406 C96.9507466,2.51464839 96.9930639,2.54231738 97.0516579,2.60742188 L97.9110329,3.64257813 C97.9500956,3.69466172 97.9647439,3.764648 97.9549782,3.85253906 C97.9452125,3.94043013 97.9175435,3.984375 97.8719704,3.984375 L94.8641579,3.984375 L93.7899392,8.13476563 L94.9715798,8.13476563 L94.9715798,6.796875 L94.9227517,5.16601563 C94.942283,5.13346338 94.9683244,5.11067715 95.0008767,5.09765625 L95.2059548,5.18554688 L96.2997048,5.59570313 C96.403872,5.64127627 96.451072,5.69173149 96.4413063,5.74707031 C96.4315407,5.80240913 96.4006165,5.85937471 96.3485329,5.91796875 L96.0262673,6.27929688 L96.0262673,8.13476563 L96.3680642,8.13476563 L96.7782204,7.34375 C96.8368144,7.23307236 96.8856421,7.17610679 96.9247048,7.17285156 C96.9637675,7.16959634 97.0060848,7.19726533 97.0516579,7.25585938 L97.8426735,8.359375 C97.907778,8.45052129 97.9370746,8.52701792 97.9305642,8.58886719 C97.9240537,8.65071646 97.8947571,8.68164063 97.8426735,8.68164063 L96.0262673,8.68164063 L96.0262673,12.2167969 C96.2801748,12.1191401 96.4754853,12.0442711 96.6122048,11.9921875 L97.8426735,11.5332031 L98.2625954,11.3769531 C98.3342103,11.3509113 98.3732725,11.3818355 98.3797829,11.4697266 C98.3862933,11.5576176 98.3667623,11.6178384 98.3211892,11.6503906 L97.9110329,11.9335938 C97.8459284,11.9791669 97.2176795,12.3828087 96.0262673,13.1445313 L96.0262673,15.8886719 L96.0750954,17.65625 C95.9513969,17.9492202 95.7544587,18.1070962 95.4842751,18.1298828 C95.2140914,18.1526694 95.057843,18.1282556 95.0155251,18.0566406 C94.9732072,17.9850257 94.942283,17.9036463 94.9227517,17.8125 L94.9715798,16.09375 L94.9715798,13.8085938 C94.8218394,13.9127609 94.4116873,14.1861957 93.741111,14.6289063 L93.2625954,14.9609375 L92.9891579,15.1953125 C92.9631161,15.2148438 92.9468402,15.2213542 92.9403298,15.2148438 C92.9273089,15.2148438 92.9175433,15.2083334 92.9110329,15.1953125 L92.8915017,15.1074219 L92.4422829,13.2714844 L92.4032204,13.1542969 C92.4032204,13.1282551 92.4162411,13.0989585 92.4422829,13.0664063 L92.7450173,13.0273438 L93.2235329,12.9492188 C93.6336912,12.8841143 94.2163677,12.7441417 94.9715798,12.5292969 L94.9715798,8.68164063 L93.6727517,8.68164063 L93.4774392,9.16992188 C93.3797824,9.40429805 93.3228168,9.53450508 93.3065407,9.56054688 C93.2902646,9.58658867 93.2756163,9.60123696 93.2625954,9.60449219 C93.2495745,9.60774741 93.2007469,9.55729219 93.116111,9.453125 L92.4422829,8.64257813 C92.3967098,8.59700498 92.3722959,8.56282563 92.3690407,8.54003906 C92.3657855,8.51725249 92.4129855,8.46354209 92.5106423,8.37890625 C92.5822572,8.32031221 92.6571263,8.18359482 92.7352517,7.96875 C92.813377,7.75390518 92.8654599,7.59440156 92.8915017,7.49023438 L93.1551735,6.45507813 C93.2137676,6.23372285 93.4090781,5.41016338 93.741111,3.984375 L92.3250954,3.984375 C92.2534805,3.90624961 92.2127908,3.79720122 92.2030251,3.65722656 C92.1932594,3.5172519 92.250225,3.44726563 92.3739235,3.44726563 L93.8290017,3.44726563 Z M102.62783,10.6738281 L102.62783,15.9765625 L102.676658,17.5195312 C102.670147,17.617188 102.637596,17.7408847 102.579002,17.890625 C102.520408,18.0403653 102.347883,18.1217447 102.061424,18.1347656 C101.774964,18.1477865 101.60895,18.1184899 101.563377,18.046875 C101.517804,17.9752601 101.488507,17.8906255 101.475486,17.7929688 L101.514549,16.4355469 L101.514549,11.3085938 L101.46572,9.62890625 C101.491762,9.596354 101.514548,9.57356777 101.53408,9.56054688 L101.758689,9.65820312 L102.803611,10.0878906 C102.875226,10.1204429 102.909405,10.1643877 102.90615,10.2197266 C102.902895,10.2750654 102.878481,10.332031 102.832908,10.390625 L102.62783,10.6738281 Z M99.8739235,10.3710938 C99.8674131,10.8463565 99.85602,11.2516259 99.8397438,11.5869141 C99.8234677,11.9222022 99.782778,12.3404923 99.7176735,12.8417969 C99.652569,13.3431015 99.5304999,13.9274055 99.3514626,14.5947266 C99.1724252,15.2620476 98.8290042,15.852862 98.3211892,16.3671875 C97.8133741,16.881513 97.4292634,17.2298168 97.1688454,17.4121094 L96.6610329,17.7734375 C96.5503553,17.8580733 96.4917621,17.8548182 96.4852517,17.7636719 C96.4787412,17.6725256 96.4982723,17.6009117 96.5438454,17.5488281 L96.9735329,17.0898438 C97.3771808,16.6536437 97.7368777,16.0823603 98.0526345,15.3759766 C98.3683912,14.6695928 98.5571914,13.9811231 98.6190407,13.3105469 C98.68089,12.6399706 98.7183245,12.0979838 98.7313454,11.6845703 C98.7443663,11.2711568 98.7492491,10.9667979 98.7459938,10.7714844 C98.7427386,10.5761709 98.741111,10.4166673 98.741111,10.2929688 L98.7215798,9.6875 L98.6922829,9.3359375 C98.7053038,9.31640615 98.7199521,9.30338545 98.7362282,9.296875 C98.7525043,9.29036455 98.8127251,9.30338525 98.9168923,9.3359375 L100.147361,9.75585938 C100.192934,9.77539072 100.220603,9.79654937 100.230369,9.81933594 C100.240135,9.84212251 100.246645,9.85839839 100.2499,9.86816406 C100.253155,9.87792974 100.245017,9.90397114 100.225486,9.94628906 C100.205955,9.98860698 100.189679,10.016276 100.176658,10.0292969 L99.8739235,10.3710938 Z M112.992049,12.5878906 L112.992049,9.53125 L110.091658,9.53125 L109.583845,10.1855469 C109.531762,10.2571618 109.486189,10.2571618 109.447127,10.1855469 L108.744002,9.00390625 C108.665876,8.88020771 108.625187,8.80696626 108.621931,8.78417969 C108.618676,8.76139312 108.711449,8.70117236 108.900252,8.60351563 C109.010929,8.55143203 109.110212,8.45052158 109.198103,8.30078125 C109.285994,8.15104092 109.468284,7.73926118 109.744978,7.06542969 C110.021672,6.39159819 110.231631,5.87239766 110.374861,5.5078125 C110.518091,5.14322734 110.68736,4.68099238 110.882674,4.12109375 L107.660017,4.12109375 C107.54934,4.12109375 107.489119,4.033204 107.479353,3.85742188 C107.469588,3.68163975 107.529808,3.59375 107.660017,3.59375 L111.06822,3.59375 C111.081241,3.54817686 111.19029,3.20312822 111.395369,2.55859375 C111.600448,1.91405928 111.748559,1.41927256 111.839705,1.07421875 L111.995955,0.48828125 L112.07408,0.0390625 C112.08059,0.0325520508 112.090356,0.0260416992 112.103377,0.01953125 L112.347517,0.1953125 L113.714705,1.07421875 C113.760278,1.11328145 113.783064,1.16699185 113.783064,1.23535156 C113.783064,1.30371128 113.740747,1.36393203 113.656111,1.41601563 L113.187361,1.71875 L112.445174,3.59375 L116.732283,3.59375 L117.249861,2.63671875 C117.367049,2.41536348 117.440291,2.29817715 117.469588,2.28515625 C117.498885,2.27213535 117.568871,2.32421816 117.679549,2.44140625 L118.744002,3.68164063 C118.828638,3.78580781 118.869327,3.88346309 118.866072,3.97460938 C118.862817,4.06575566 118.822127,4.11132813 118.744002,4.11132813 L118.245955,4.11132813 L118.245955,4.12109375 L112.23033,4.12109375 L110.247908,9.00390625 L112.992049,9.00390625 L112.992049,6.97265625 L112.952986,5.30273438 C112.979028,5.26367168 113.005069,5.23763027 113.031111,5.22460938 L113.187361,5.29296875 L114.544783,5.86914063 C114.635929,5.91471377 114.678246,5.97656211 114.671736,6.0546875 C114.665226,6.13281289 114.622908,6.20117158 114.544783,6.25976563 L114.232283,6.49414063 L114.232283,9.00390625 L116.165877,9.00390625 L116.644392,8.06640625 C116.768091,7.81249873 116.860863,7.70345034 116.922713,7.73925781 C116.984562,7.77506528 117.070824,7.86132744 117.181502,7.99804688 L118.060408,9.07226563 C118.138533,9.17643281 118.177595,9.27571567 118.177595,9.37011719 C118.177595,9.4645187 118.138533,9.51171875 118.060408,9.51171875 L114.232283,9.53125 L114.232283,12.5878906 L117.47447,12.5878906 L118.060408,11.5527344 C118.138533,11.402994 118.192244,11.3264974 118.221541,11.3232422 C118.250838,11.319987 118.294783,11.347656 118.353377,11.40625 L119.339705,12.6464844 C119.398299,12.7180993 119.438989,12.7848304 119.461775,12.8466797 C119.484562,12.908529 119.495955,12.9671221 119.495955,13.0224609 C119.495955,13.0777998 119.453638,13.1054688 119.369002,13.1054688 L117.757674,13.1054688 L117.757674,13.125 L114.232283,13.125 L114.232283,16.0644531 L114.281111,17.7246094 C114.26809,17.8092452 114.250187,17.8808591 114.2274,17.9394531 C114.204614,17.9980472 114.124862,18.0745438 113.988142,18.1689453 C113.851423,18.2633468 113.669133,18.3121745 113.441267,18.3154297 C113.213402,18.3186849 113.076684,18.2698573 113.031111,18.1689453 C112.985538,18.0680333 112.959496,17.9361987 112.952986,17.7734375 L112.992049,16.1328125 L112.992049,13.125 L107.171736,13.125 L107.103377,13.0957031 C107.057804,13.0761718 107.035017,13.0598959 107.035017,13.046875 L107.015486,12.9394531 C107.015486,12.705077 107.067569,12.5878906 107.171736,12.5878906 L112.992049,12.5878906 Z"></path>
                <path d="M25.703125,47.7021484 L26.3798828,46.4716797 C26.6123058,46.0615214 26.7558591,45.8666991 26.8105469,45.887207 C26.8652346,45.9077149 27.0156238,46.0341785 27.2617188,46.2666016 L28.6767578,47.640625 C28.868165,47.8457042 28.9912107,48.0029291 29.0458984,48.1123047 C29.1005862,48.2216802 29.1313476,48.3242183 29.1381836,48.4199219 C29.1450196,48.5156255 29.0732429,48.6591787 28.9228516,48.8505859 L28.3486328,49.5273438 L28.3486328,58.0380859 L28.4716797,61.8935547 C28.389648,62.3857446 28.184572,62.7001946 27.8564453,62.8369141 C27.5283187,62.9736335 27.1044948,63.0624998 26.5849609,63.1035156 C26.0654271,63.1445315 25.8056641,62.959963 25.8056641,62.5498047 L25.8056641,60.7861328 L15.2646484,60.7861328 L15.2646484,61.75 C15.2646484,62.228518 15.2236332,62.5634756 15.1416016,62.7548828 C15.0595699,62.94629 14.8647476,63.103515 14.5571289,63.2265625 C14.2495102,63.34961 13.9145526,63.4145507 13.5522461,63.4213867 C13.1899396,63.4282227 12.9711918,63.359864 12.8959961,63.2163086 C12.8208004,63.0727532 12.7695314,62.9121103 12.7421875,62.734375 L12.8447266,58.8378906 L12.8447266,49.3632812 L12.7421875,46.0205078 C12.7832033,45.979492 12.8105468,45.9555664 12.8242188,45.9487305 C12.8378907,45.9418945 12.9609363,46.020507 13.1933594,46.1845703 L15.4082031,47.7021484 L25.703125,47.7021484 Z M15.2646484,48.8300781 L15.2646484,53.1777344 L25.8056641,53.1777344 L25.8056641,48.8300781 L15.2646484,48.8300781 Z M25.8056641,54.2851562 L15.2646484,54.2851562 L15.2646484,59.6582031 L25.8056641,59.6582031 L25.8056641,54.2851562 Z M14.0546875,37.0791016 C14.0546875,36.8876944 14.0615234,36.7373052 14.0751953,36.6279297 L14.1777344,34.8232422 C14.2050783,34.153317 14.2255859,33.4902377 14.2392578,32.8339844 L14.2392578,31.7265625 L12.3730469,31.7265625 C12.2089836,32.0410172 12.0517586,32.3281237 11.9013672,32.5878906 L11.0605469,34.0234375 C10.787108,34.4746116 10.4863298,34.9189431 10.1582031,35.3564453 L9.39941406,36.3613281 C9.23535074,36.5800792 9.1123051,36.6826173 9.03027344,36.6689453 C8.98925761,36.6689453 8.9584962,36.6518556 8.93798828,36.6176758 C8.91748037,36.5834959 8.90380863,36.5185552 8.89697266,36.4228516 C8.89013668,36.327148 8.91406223,36.2041023 8.96875,36.0537109 L9.33789062,35.0898438 C9.83008059,33.7636652 10.2744121,32.3281327 10.6708984,30.7832031 C11.0673848,29.2382735 11.3544913,28.0078171 11.5322266,27.0917969 L11.7578125,25.8408203 L11.8398438,25.0820312 C11.8671876,25.0546874 11.901367,25.0273439 11.9423828,25 L12.4960938,25.3691406 L14.6494141,26.7226562 C14.9501968,26.9277354 15.1005859,27.105468 15.1005859,27.2558594 C15.1005859,27.3789069 15.0322272,27.474609 14.8955078,27.5429688 L14.2597656,27.8916016 C14.0136706,28.4248074 13.576175,29.3271421 12.9472656,30.5986328 L18.2382812,30.5986328 L19.0791016,29.0605469 C19.2978527,28.6777325 19.4414059,28.4726564 19.5097656,28.4453125 C19.5781253,28.4179686 19.701171,28.5136708 19.8789062,28.7324219 L21.5605469,31.0908203 C21.6562505,31.2275397 21.7041016,31.316406 21.7041016,31.3574219 L21.7041016,31.4907227 C21.7041016,31.5385745 21.6938478,31.5864255 21.6733398,31.6342773 C21.6528319,31.6821291 21.5810553,31.7060547 21.4580078,31.7060547 L19.140625,31.7060547 L19.140625,31.7265625 L17.3769531,31.7265625 C17.2539056,32.0136733 17.076173,32.2871081 16.84375,32.546875 C16.7890622,33.4082074 16.7412111,34.1840786 16.7001953,34.8745117 C16.6591795,35.5649449 16.6284181,36.029784 16.6079102,36.269043 C16.5874022,36.508302 16.5703126,36.7783188 16.5566406,37.0791016 L18.8125,37.0791016 L19.8789062,35.2333984 C19.9746099,35.0556632 20.0463865,34.9702148 20.0942383,34.9770508 C20.1420901,34.9838868 20.2275384,35.0556634 20.3505859,35.1923828 L22.09375,37.5712891 C22.2031255,37.7216804 22.2509766,37.8652337 22.2373047,38.0019531 C22.2236327,38.1386726 22.1689458,38.2070312 22.0732422,38.2070312 L16.4335938,38.2070312 L16.1669922,39.8886719 C16.5771505,39.9843755 17.0351537,40.0903315 17.5410156,40.206543 C18.0468775,40.3227545 18.7612259,40.6132789 19.684082,41.078125 C20.6069382,41.5429711 21.0751952,42.2846629 21.0888672,43.3032227 C21.1025391,44.3217824 20.9965832,45.0976536 20.7709961,45.6308594 C20.545409,46.1640652 20.2036156,46.434082 19.7456055,46.440918 C19.2875954,46.4477539 18.9731454,46.3281262 18.8022461,46.0820312 C18.6313468,45.8359363 18.4775397,45.4360379 18.3408203,44.8823242 C18.2041009,44.3286105 18.0673835,43.8125024 17.9306641,43.3339844 C17.7939446,42.8554664 17.5991224,42.3906273 17.3461914,41.9394531 C17.0932605,41.488279 16.6386752,40.9960964 15.9824219,40.4628906 C15.7910147,41.0644561 15.6269538,41.5258773 15.4902344,41.847168 C15.3535149,42.1684586 15.0288112,42.7324178 14.5161133,43.5390625 C14.0034154,44.3457072 13.3642616,45.0258761 12.5986328,45.5795898 C11.833004,46.1333035 11.050297,46.632322 10.2504883,47.0766602 C9.45067959,47.5209983 8.79101822,47.8388662 8.27148438,48.0302734 L7.28710938,48.3994141 C7.21874966,48.4404299 7.1538089,48.433594 7.09228516,48.3789062 C7.03076141,48.3242185 7,48.242188 7,48.1328125 C7,48.0917967 7.01708967,48.0302738 7.05126953,47.9482422 C7.08544939,47.8662105 7.13671841,47.8046877 7.20507812,47.7636719 L8.1484375,47.2304688 C8.42187637,47.0800774 8.95507416,46.6870149 9.74804688,46.0512695 C10.5410196,45.4155242 11.2861293,44.5815481 11.9833984,43.5493164 C12.6806675,42.5170847 13.1591784,41.5361375 13.4189453,40.6064453 C13.6787122,39.6767532 13.8222655,39.1025402 13.8496094,38.8837891 L13.9521484,38.2070312 L7.94335938,38.2070312 L7.90234375,38.1865234 C7.77929626,38.1591796 7.68701203,38.1147464 7.62548828,38.0532227 C7.56396454,37.9916989 7.51611345,37.8139663 7.48193359,37.5200195 C7.44775374,37.2260727 7.58788905,37.0791016 7.90234375,37.0791016 L14.0546875,37.0791016 Z M25.1904297,42.6572266 L25.1904297,44.3388672 C25.1904297,44.7900413 25.019533,45.1044913 24.6777344,45.2822266 C24.3359358,45.4599618 23.9873065,45.5522461 23.6318359,45.559082 C23.2763654,45.565918 23.0541997,45.5078131 22.965332,45.3847656 C22.8764644,45.2617181 22.8115236,45.0634779 22.7705078,44.7900391 L22.8935547,41.6933594 L22.8935547,32.7314453 L22.7705078,29.5732422 C22.7978517,29.5458983 22.8217772,29.5253907 22.8422852,29.5117188 C22.8627931,29.4980468 23.0644512,29.6142566 23.4472656,29.8603516 L25.1904297,31.0087891 L29.3945312,31.0087891 L30.1123047,29.7373047 C30.3583997,29.3134744 30.5156247,29.1220701 30.5839844,29.1630859 C30.6523441,29.2041018 30.761718,29.2998039 30.9121094,29.4501953 L32.7373047,31.2958984 C32.8193363,31.405274 32.8637695,31.51123 32.8706055,31.6137695 C32.8774414,31.7163091 32.8056648,31.8564444 32.6552734,32.0341797 L32.0605469,32.8339844 L32.0605469,40.5244141 L32.1835938,43.8261719 C32.0468743,44.7011763 31.5786173,45.1523436 30.7788086,45.1796875 C29.9789999,45.2070314 29.5791016,44.9472684 29.5791016,44.4003906 L29.5585938,42.6572266 L25.1904297,42.6572266 Z M29.5585938,41.5498047 L29.5585938,32.1367188 L25.1904297,32.1367188 L25.1904297,41.5498047 L29.5585938,41.5498047 Z M47.3276953,39.5195312 L47.3276953,33.1210938 L40.3550391,33.1210938 C40.122616,33.1210938 40.0132421,32.9467791 40.0269141,32.5981445 C40.040586,32.24951 40.1499599,32.0751953 40.3550391,32.0751953 L47.3276953,32.0751953 L47.3276953,29.1015625 L47.2046484,25.6972656 C47.2730082,25.6835937 47.491756,25.7314448 47.8608984,25.8408203 L50.7319922,26.7841797 C50.9233994,26.8525394 51.0191016,26.9516595 51.0191016,27.081543 C51.0191016,27.2114264 50.9575787,27.33789 50.8345312,27.4609375 L49.9116797,28.3837891 L49.9116797,32.0751953 L52.1675391,32.0751953 L53.1108984,30.3730469 C53.220274,30.1816397 53.3159761,30.0825196 53.3980078,30.0756836 C53.4800395,30.0688476 53.5825775,30.1337884 53.705625,30.2705078 L55.4282812,32.4238281 C55.6060165,32.6425792 55.6812111,32.8134759 55.6538672,32.9365234 C55.6265233,33.0595709 55.5513287,33.1210938 55.4282812,33.1210938 L49.9116797,33.1210938 L49.9116797,39.5195312 L51.6548437,39.5195312 C52.8853186,37.9882736 53.9995653,36.3818443 54.9976172,34.7001953 C55.9956691,33.0185463 56.6108973,31.9521507 56.8433203,31.5009766 L57.3970312,30.3730469 L57.7251562,29.59375 C57.7661721,29.5527342 57.8106052,29.5493162 57.858457,29.5834961 C57.9063088,29.617676 58.05328,29.771483 58.299375,30.0449219 L60.3296484,32.546875 C60.4800398,32.7519542 60.5928317,32.9399406 60.6680273,33.1108398 C60.743223,33.2817391 60.6304312,33.3876951 60.3296484,33.4287109 L59.3657812,33.5722656 C57.4653811,36.2793104 55.9751616,38.2617125 54.8950781,39.5195312 L58.7710547,39.5195312 L60.0425391,37.5712891 C60.1792585,37.352538 60.2817965,37.2397461 60.3501562,37.2329102 C60.418516,37.2260742 60.5005464,37.2841791 60.59625,37.4072266 L62.4829687,39.7246094 C62.7290637,40.0390641 62.8486914,40.2714836 62.8418555,40.421875 C62.8350195,40.5722664 62.7700787,40.6474609 62.6470312,40.6474609 L53.9517187,40.6474609 C52.8579633,41.9326236 51.9727182,42.9272426 51.295957,43.6313477 C50.6191958,44.3354527 49.774966,45.1728467 48.7632422,46.1435547 L55.1821875,46.1435547 L55.9204687,44.9541016 C56.1392198,44.5849591 56.2725193,44.4140624 56.3203711,44.4414062 C56.3682229,44.4687501 56.4605071,44.5439447 56.5972266,44.6669922 L58.4429297,46.5126953 C58.7163686,46.7861342 58.8394142,46.9809565 58.8120703,47.097168 C58.7847264,47.2133795 58.7095319,47.3535148 58.5864844,47.5175781 L57.9917578,48.3173828 L57.9917578,58.3251953 L58.0942969,61.5039062 C58.066953,61.7500012 58.015684,61.972167 57.9404883,62.1704102 C57.8652926,62.3686533 57.6567986,62.5668935 57.315,62.7651367 C56.9732014,62.9633799 56.5972286,63.0556641 56.1870703,63.0419922 C55.6401926,63.0419922 55.3667578,62.7822292 55.3667578,62.2626953 L55.3667578,60.4990234 L46.1177344,60.4990234 L46.1177344,61.9345703 C46.1177344,62.1396495 46.0801371,62.3549793 46.0049414,62.5805664 C45.9297457,62.8061535 45.6973262,62.9838861 45.3076758,63.1137695 C44.9180254,63.243653 44.5386347,63.3051758 44.1694922,63.2983398 C43.8003497,63.2915039 43.5986916,63.2026376 43.5645117,63.0317383 C43.5303319,62.860839 43.5132422,62.7001961 43.5132422,62.5498047 L43.6362891,59.2890625 L43.6362891,50.2451172 C41.6401853,51.6259835 40.3345343,52.4804671 39.7192969,52.8085938 L37.9351172,53.7724609 L36.9097266,54.2646484 C36.8413668,54.2919923 36.7866799,54.2988282 36.7456641,54.2851562 C36.7046482,54.2851562 36.6704689,54.2578128 36.643125,54.203125 C36.6157811,54.1484372 36.5986914,54.0698247 36.5918555,53.9672852 C36.5850195,53.8647456 36.6499603,53.7587896 36.7866797,53.6494141 L37.8120703,52.9316406 C39.8355179,51.5097585 41.7769048,49.8759858 43.6362891,48.0302734 L43.5542578,45.1386719 C43.5542578,45.0703122 43.5713475,45.0224611 43.6055273,44.9951172 C43.6397072,44.9677733 43.807186,45.036132 44.1079687,45.2001953 L45.6665625,46.1435547 C45.9126575,45.9384755 46.1245694,45.757325 46.3023047,45.6000977 C46.4800399,45.4428703 47.0747606,44.8037165 48.0864844,43.6826172 L49.9732031,41.6113281 C50.2192981,41.3378893 50.4722253,41.0166034 50.7319922,40.6474609 L37.4429297,40.6474609 C37.2105066,40.6474609 37.0772072,40.4594745 37.0430273,40.0834961 C37.0088475,39.7075177 37.1421469,39.5195312 37.4429297,39.5195312 L47.3276953,39.5195312 Z M55.3667578,59.3916016 L55.3667578,53.2597656 L46.1177344,53.2597656 L46.1177344,59.3916016 L55.3667578,59.3916016 Z M47.4097266,47.2919922 L46.1177344,48.3173828 L46.1177344,52.1523438 L55.3667578,52.1523438 L55.3667578,47.2919922 L47.4097266,47.2919922 Z M82.3326953,39.3349609 C82.15496,39.3076171 82.0319144,39.2529301 81.9635547,39.1708984 C81.895195,39.0888668 81.8644336,38.9077162 81.8712695,38.6274414 C81.8781055,38.3471666 81.9977332,38.2070312 82.2301562,38.2070312 L92.1149219,38.2070312 C92.1285938,37.5917938 92.1354297,37.1269547 92.1354297,36.8125 L92.1764453,35.3974609 C92.2037892,34.6728479 92.214043,33.7226621 92.207207,32.546875 C92.2003711,31.3710879 92.1901172,30.5029325 92.1764453,29.9423828 L92.1149219,27.8505859 L92.0328906,26.1689453 C92.1012503,26.0595698 92.1969525,25.9843752 92.32,25.9433594 L92.8532031,26.0869141 L95.5397266,26.7841797 C95.8678532,26.8798833 96.0729293,26.9721675 96.1549609,27.0610352 C96.2369926,27.1499028 96.2745899,27.2216794 96.2677539,27.2763672 C96.2609179,27.331055 96.2267386,27.4199213 96.1652148,27.5429688 C96.1036911,27.6660162 96.0319145,27.7685543 95.9498828,27.8505859 L95.2526172,28.4863281 C95.1979294,31.0156376 95.1569142,32.8749941 95.1295703,34.0644531 C95.1022264,35.2539122 95.0885547,35.9580067 95.0885547,36.1767578 L95.0475391,38.2070312 L102.840508,38.2070312 L103.906914,36.1972656 C104.153009,35.7324196 104.31707,35.4965821 104.399102,35.4897461 C104.481133,35.4829101 104.686209,35.6503889 105.014336,35.9921875 L107.126641,38.2890625 C107.400079,38.5898453 107.536797,38.8291007 107.536797,39.0068359 C107.523125,39.225587 107.318049,39.3349609 106.921562,39.3349609 L95.8678516,39.3349609 C96.0866026,40.6748114 96.4044706,42.3188379 96.8214648,44.2670898 C97.2384591,46.2153418 98.3766313,48.81639 100.236016,52.0703125 C102.0954,55.324235 104.41276,57.5664001 107.188164,58.796875 L107.926445,59.125 C108.158868,59.2343755 108.275078,59.3779288 108.275078,59.5556641 C108.261406,59.6240238 108.234063,59.6923825 108.193047,59.7607422 C108.152031,59.8291019 108.10418,59.8701171 108.049492,59.8837891 L107.536797,60.0068359 C106.743824,60.2119151 106.210626,60.4614243 105.937187,60.7553711 C105.663749,61.0493179 105.376642,61.4526342 105.075859,61.965332 C104.775077,62.4780299 104.570001,62.7446288 104.460625,62.7651367 C104.351249,62.7856446 104.153009,62.6044941 103.865898,62.2216797 L102.676445,61.0117188 C102.512382,60.8476554 102.109066,60.3725625 101.466484,59.5864258 C100.823903,58.800289 100.256526,58.0312538 99.7643359,57.2792969 C99.272146,56.52734 98.6671716,55.2456145 97.9493945,53.434082 C97.2316175,51.6225495 96.7291811,49.9819409 96.4420703,48.512207 C96.1549595,47.0424731 95.9327937,45.7060607 95.7755664,44.5029297 C95.6183391,43.2997987 95.4918755,42.1377009 95.3961719,41.0166016 L95.2526172,39.3349609 L95.0475391,39.3349609 C95.0201952,40.0869178 94.975762,40.9414015 94.9142383,41.8984375 C94.8527145,42.8554735 94.6989075,44.2875881 94.4528125,46.1948242 C94.2067175,48.1020603 93.762386,49.896476 93.1198047,51.578125 C92.4772233,53.259774 91.5065299,54.8456957 90.2076953,56.3359375 C88.9088607,57.8261793 87.6681504,59.0327102 86.4855273,59.9555664 C85.3029042,60.8784226 84.1305527,61.6542937 82.9684375,62.2832031 L82.1276172,62.734375 C81.9772258,62.8300786 81.8678519,62.8710938 81.7994922,62.8574219 C81.7311325,62.8437499 81.6901172,62.8198244 81.6764453,62.7856445 C81.6627734,62.7514647 81.6525196,62.6899419 81.6456836,62.6010742 C81.6388476,62.5122066 81.7037884,62.4062506 81.8405078,62.2832031 L82.4967578,61.75 L83.78875,60.7041016 C84.5270349,60.0888641 85.3678468,59.2343805 86.3112109,58.140625 C87.254575,57.0468695 88.1329842,55.717293 88.9464648,54.1518555 C89.7599455,52.586418 90.4401144,50.6347773 90.9869922,48.296875 C91.5338699,45.9589727 91.8688275,43.6279413 91.991875,41.3037109 L92.1149219,39.3349609 L82.3326953,39.3349609 Z M124.957266,34.7822266 L124.957266,34.0541992 C124.957266,33.7602524 124.943594,33.1826215 124.91625,32.3212891 L124.834219,29.6552734 L124.772695,27.8505859 L124.690664,26.1894531 C124.704336,26.1621092 124.724844,26.1347658 124.752187,26.1074219 L125.141836,26.2509766 L128.156484,27.2558594 C128.252188,27.2968752 128.310293,27.3378904 128.330801,27.3789062 C128.351309,27.4199221 128.36498,27.478027 128.371816,27.5532227 C128.378652,27.6284183 128.327383,27.7275384 128.218008,27.8505859 L127.35668,28.9375 C127.315664,30.0449274 127.298574,30.8378882 127.30541,31.3164062 C127.312246,31.7949243 127.3225,32.3862269 127.336172,33.090332 C127.349844,33.7944371 127.363516,34.166992 127.377187,34.2080078 L127.397695,34.7822266 L133.201406,34.7822266 L134.267812,32.7929688 C134.404532,32.5332018 134.500234,32.4067382 134.554922,32.4135742 C134.60961,32.4204102 134.746327,32.5468738 134.965078,32.7929688 L137.015859,35.2128906 C137.138907,35.3769539 137.193594,35.5375969 137.179922,35.6948242 C137.16625,35.8520516 137.091055,35.9306641 136.954336,35.9306641 L127.397695,35.9306641 C127.452383,37.0107476 127.503652,37.930172 127.551504,38.6889648 C127.599356,39.4477577 127.664296,40.165524 127.746328,40.8422852 C127.82836,41.5190464 127.985585,42.6743082 128.218008,44.3081055 C128.450431,45.9419027 128.621328,46.970701 128.730703,47.3945312 L129.181875,49.1992188 C130.41235,45.9726401 131.259998,43.4365327 131.724844,41.5908203 L132.073477,40.1347656 L132.258047,39.3349609 C132.285391,39.321289 132.31957,39.321289 132.360586,39.3349609 L132.750234,39.6630859 L135.190664,41.5087891 C135.354727,41.6455085 135.43334,41.7685541 135.426504,41.8779297 C135.419668,41.9873052 135.341055,42.0830074 135.190664,42.1650391 L134.431875,42.6367188 C133.69359,44.6875103 133.037347,46.4135672 132.463125,47.8149414 C131.888903,49.2163156 131.157465,50.7919834 130.268789,52.5419922 C130.514884,53.1572296 130.771229,53.7382785 131.037832,54.2851562 C131.304435,54.832034 131.830797,55.5873975 132.616934,56.5512695 C133.40307,57.5151415 133.96703,58.0825187 134.308828,58.253418 C134.650627,58.4243173 134.883046,58.5029298 135.006094,58.4892578 C135.170157,58.4755859 135.337636,58.3525402 135.508535,58.1201172 C135.679434,57.8876942 135.894764,57.4023474 136.154531,56.6640625 L137.159414,54.0185547 L137.692617,52.5419922 C137.733633,52.4189447 137.801992,52.3574219 137.897695,52.3574219 C138.007071,52.3710938 138.065176,52.4462884 138.072012,52.5830078 C138.078848,52.7197272 138.082266,52.7949218 138.082266,52.8085938 L137.549062,55.4746094 C137.24828,56.9648512 137.111562,57.9287087 137.138906,58.3662109 C137.16625,58.8037131 137.227773,59.2070294 137.323477,59.5761719 L137.733633,61.0117188 C137.801993,61.2988296 137.836172,61.538085 137.836172,61.7294922 C137.8225,62.5498088 137.453363,62.9804685 136.72875,63.0214844 C136.359608,63.0488283 135.788812,62.9086929 135.016348,62.6010742 C134.243883,62.2934555 133.43725,61.7363322 132.596426,60.9296875 C131.755601,60.1230428 131.051507,59.3505896 130.484121,58.6123047 C129.916735,57.8740197 129.489494,57.2177763 129.202383,56.6435547 L128.525625,55.2695312 C127.705308,56.2539112 126.731197,57.255366 125.603262,58.2739258 C124.475326,59.2924856 123.16284,60.2426714 121.665762,61.1245117 C120.168684,62.0063521 119.276603,62.5224602 118.989492,62.6728516 L118.16918,63.1035156 C118.128164,63.1308595 118.080313,63.1342774 118.025625,63.1137695 C117.970937,63.0932616 117.93334,63.0659181 117.912832,63.0317383 C117.892324,62.9975584 117.885488,62.9223639 117.892324,62.8061523 C117.89916,62.6899408 117.957265,62.5976566 118.066641,62.5292969 L118.415273,62.3037109 C119.044183,61.9208965 120.035384,61.1450254 121.388906,59.9760742 C122.742429,58.8071231 123.942124,57.5527411 124.988027,56.2128906 C126.033931,54.8730402 126.884997,53.6494196 127.54125,52.5419922 C127.11742,50.9560468 126.761955,49.4760811 126.474844,48.1020508 C126.187733,46.7280205 125.958731,45.4018619 125.787832,44.1235352 C125.616933,42.8452085 125.497305,41.826664 125.428945,41.0678711 C125.360586,40.3090782 125.230704,38.596693 125.039297,35.9306641 L117.389883,35.9306641 L117.328359,42.1650391 L120.876211,42.1650391 L121.45043,40.9755859 C121.587149,40.7021471 121.679433,40.5517579 121.727285,40.5244141 C121.775137,40.4970702 121.901601,40.5859365 122.10668,40.7910156 L123.849844,42.5136719 C123.945547,42.6230474 124.003652,42.7221675 124.02416,42.8110352 C124.044668,42.8999028 123.95922,43.0810533 123.767812,43.3544922 L123.255117,44.0927734 C123.227773,45.4189519 123.207266,46.721185 123.193594,47.9995117 C123.179922,49.2778384 123.162832,50.2827112 123.142324,51.0141602 C123.121816,51.7456091 123.084219,52.4223602 123.029531,53.0444336 C122.974843,53.666507 122.858634,54.3911091 122.680898,55.2182617 C122.503163,56.0454143 122.175041,56.6572246 121.696523,57.0537109 C121.218005,57.4501973 120.883048,57.6894527 120.691641,57.7714844 L120.096914,58.0175781 C120.028554,58.058594 119.967032,58.0825195 119.912344,58.0893555 C119.857656,58.0961914 119.796133,57.9492203 119.727773,57.6484375 L119.543203,56.8896484 C119.283436,56.0146441 118.804925,55.337893 118.107656,54.859375 L117.574453,54.5107422 C117.424062,54.4287105 117.355703,54.3193366 117.369375,54.1826172 C117.369375,54.1552733 117.379629,54.1074222 117.400137,54.0390625 C117.420645,53.9707028 117.47875,53.9365234 117.574453,53.9365234 L118.107656,54.0185547 L118.989492,54.1826172 C119.071524,54.1962891 119.146718,54.203125 119.215078,54.203125 C119.556877,54.2167969 119.823476,54.1826176 120.014883,54.1005859 C120.20629,54.0185543 120.373769,53.8374037 120.517324,53.5571289 C120.66088,53.2768541 120.763418,52.6992231 120.824941,51.8242188 C120.886465,50.9492144 120.92748,50.0434617 120.947988,49.1069336 C120.968496,48.1704055 120.97875,46.9502028 120.97875,45.4462891 L120.97875,43.2724609 L117.328359,43.2724609 C117.314687,43.4775401 117.307852,43.6279292 117.307852,43.7236328 L117.246328,45.9179688 C117.218984,47.0390681 117.147208,48.3618088 117.030996,49.8862305 C116.914785,51.4106522 116.665275,52.9760662 116.282461,54.5825195 C115.899647,56.1889729 114.648682,58.5097504 112.529531,61.5449219 L111.934805,62.3857422 C111.866445,62.4814458 111.801504,62.5258789 111.73998,62.519043 C111.678457,62.512207 111.640859,62.4506842 111.627187,62.3344727 C111.613516,62.2182611 111.640859,62.0781258 111.709219,61.9140625 L112.201406,60.9501953 C112.885003,59.5966729 113.366932,58.4311572 113.647207,57.4536133 C113.927482,56.4760693 114.14623,55.5327194 114.303457,54.6235352 C114.460684,53.7143509 114.590566,52.7983445 114.693105,51.8754883 C114.795645,50.9526321 114.864004,49.8520572 114.898184,48.5737305 C114.932363,47.2954038 114.956289,46.0854549 114.969961,44.9438477 C114.983633,43.8022404 114.990469,42.9648464 114.990469,42.4316406 C114.976797,42.0078104 114.966543,41.3310593 114.959707,40.4013672 C114.952871,39.471675 114.935781,38.6513707 114.908437,37.9404297 L114.805898,34.9667969 L114.662344,33.0800781 C114.717032,32.9843745 114.764883,32.9331055 114.805898,32.9262695 C114.846914,32.9194336 114.942616,32.9707026 115.093008,33.0800781 L117.143789,34.7822266 L124.957266,34.7822266 Z M128.546133,28.7119141 C128.559805,28.5478507 128.655507,28.4658203 128.833242,28.4658203 C129.079337,28.4794923 129.643296,28.5546868 130.525137,28.6914062 C131.406977,28.8281257 132.070056,29.1665012 132.514395,29.706543 C132.958733,30.2465847 133.180898,30.8310515 133.180898,31.4599609 C133.180898,32.0888703 133.054435,32.6049785 132.801504,33.0083008 C132.548573,33.4116231 132.210197,33.6064454 131.786367,33.5927734 C131.253161,33.5791015 130.914786,33.4047868 130.77123,33.0698242 C130.627675,32.7348616 130.490958,32.3007839 130.361074,31.7675781 C130.231191,31.2343723 130.070548,30.7592794 129.879141,30.3422852 C129.687733,29.9252909 129.441642,29.607423 129.140859,29.3886719 C128.840077,29.1699208 128.665762,29.0195317 128.61791,28.9375 C128.570058,28.8554683 128.546133,28.7802738 128.546133,28.7119141 Z" id="智者-大成"></path>
            </g>
        </g>
    </g>
</svg>