<?xml version="1.0" encoding="UTF-8"?>
<svg width="157px" height="81px" viewBox="0 0 157 81" version="1.1" xmlns="http://www.w3.org/2000/svg" xmlns:xlink="http://www.w3.org/1999/xlink">
    <!-- Generator: Sketch 50.2 (55047) - http://www.bohemiancoding.com/sketch -->
    <title>Maybach</title>
    <desc>Created with Sketch.</desc>
    <defs></defs>
    <g id="Page-1" stroke="none" stroke-width="1" fill="none" fill-rule="evenodd">
        <g id="Maybach" fill="#FFFFFF" fill-rule="nonzero">
            <rect id="Rectangle-Copy-13_1_" x="63.5" y="79.2" width="30.3" height="1"></rect>
            <g id="Group" transform="translate(21.000000, 25.000000)">
                <path d="M8.9,9.4 L9.6,8.1 C9.7,7.8 9.8,7.7 9.9,7.7 C10,7.7 10.1,7.8 10.4,8 L12.4,9.8 C12.8,10.1 12.9,10.4 12.9,10.6 C12.9,10.8 12.8,11 12.5,11.1 L11.7,11.6 C11.1,12.8 10.5,13.9 10.1,14.7 C9.7,15.5 9.1,16.5 8.3,17.6 L8.8,17.9 C8.9,18 8.9,18 9,18.1 C9.1,18.2 9,18.2 9,18.3 C9,18.4 8.9,18.5 8.8,18.6 L8.4,19 L8.4,19.2 C10.5,19.4 11.8,20 12.3,20.8 C12.8,21.6 13.1,22.4 13.1,22.9 C13.1,23.5 13,23.9 12.8,24.3 C12.5,24.9 12.1,25.3 11.6,25.2 C11.4,25.2 11.3,25.2 11.2,25.1 C11.1,25 11,25 10.9,24.8 C10.8,24.6 10.7,24.3 10.5,23.8 L10.1,22.3 C9.9,21.7 9.7,21.3 9.5,20.9 C9.3,20.5 8.9,20.1 8.4,19.8 L8.4,34.4 L8.5,36.7 C8.5,36.9 8.4,37.2 8.2,37.5 C8,37.8 7.7,38 7.1,38 C6.5,38 6.2,38 6.1,37.9 C6,37.8 5.9,37.6 5.9,37.4 L6,32.6 L6,20.6 C5.3,21.5 4.5,22.4 3.7,23.3 C2.8,24.2 2.2,24.9 1.9,25.2 L1,26.1 C0.8,26.3 0.7,26.3 0.6,26.2 C0.5,26.1 0.5,26 0.5,25.9 C0.5,25.8 0.6,25.7 0.6,25.6 L1.4,24.4 C1.9,23.7 2.5,22.8 3.2,21.8 C3.9,20.8 4.7,19.2 5.8,17.1 C6.9,15 7.8,12.7 8.7,10.4 L0.8,10.4 C0.6,10.4 0.4,10.2 0.4,9.8 C0.4,9.4 0.5,9.2 0.8,9.2 L8.9,9.2 L8.9,9.4 Z M4.4,2.3 L4.1,1.8 C4,1.7 4,1.6 4,1.5 C4,1.4 4.1,1.3 4.4,1.3 C5,1.4 5.8,1.7 6.8,2.3 C7.9,2.9 8.4,4 8.4,5.4 C8.4,6 8.2,6.5 7.9,7.1 C7.6,7.7 7.2,7.9 6.6,7.9 C6.2,7.9 5.9,7.7 5.6,7.4 C5.4,7 5.2,6.5 5.2,5.9 L5.1,4.5 C5.1,4.2 5,3.9 5,3.5 C4.9,3.2 4.7,2.8 4.4,2.3 Z M18.3,4.4 L18.3,31.6 C18.3,32.1 18.4,32.4 18.7,32.5 C19,32.6 19.5,32.7 20.2,32.7 C21.8,32.7 22.7,32.5 23.1,32.1 C23.5,31.7 23.8,31.2 24.1,30.6 C24.4,29.9 24.6,29.3 24.7,28.8 L25.4,25.9 C25.4,25.7 25.5,25.6 25.6,25.5 C25.7,25.4 25.7,25.4 25.8,25.6 C25.9,25.8 25.9,25.8 25.9,25.9 C25.9,26 25.9,26 25.9,26.1 L25.5,29.4 C25.4,30.2 25.4,30.7 25.4,31 C25.4,31.3 25.4,31.5 25.5,31.8 C25.6,32 25.7,32.3 25.8,32.7 C25.9,33.1 26,33.3 26,33.4 C26,33.5 26,33.7 26,33.8 C26,34.2 25.7,34.8 25.2,35.5 C24.7,36.2 23.1,36.5 20.5,36.5 C18,36.5 16.6,36.2 16.3,35.5 C16,34.8 15.8,34 15.8,33.1 L15.8,7.5 L15.7,1.7 C15.8,1.6 15.8,1.6 15.8,1.6 C15.8,1.6 16,1.6 16.3,1.7 L19,2.7 C19.1,2.8 19.2,2.8 19.3,2.9 C19.3,3 19.4,3 19.4,3.1 C19.4,3.2 19.4,3.3 19.3,3.4 C19.2,3.5 19.2,3.6 19.1,3.7 L18.3,4.4 Z" id="Shape"></path>
                <path d="M33.7,19 C32.2,21 31.4,22 31.2,22.2 L30.2,23.3 C29.8,23.7 29.5,23.9 29.4,23.9 C29.3,23.9 29.3,23.9 29.3,23.8 C29.3,23.7 29.3,23.7 29.3,23.7 C29.3,23.6 29.4,23.4 29.5,23.2 L30.1,22.3 L30.8,21 C31.3,20.2 31.7,19.2 32.2,18.2 C32.7,17.2 33.3,15.9 33.9,14.2 C34.5,12.5 35,11.4 35.1,10.9 L35.6,9.5 C35.7,9.3 35.7,9.2 35.7,9.2 C35.7,9.2 35.8,9.3 36.1,9.5 L38.2,11.3 C38.5,11.6 38.7,11.8 38.7,11.9 C38.8,12 38.8,12.1 38.8,12.2 C38.8,12.3 38.6,12.4 38.3,12.5 L37.7,12.7 C37,13.9 36.4,14.9 35.7,15.9 L36.2,16.4 C36.3,16.5 36.4,16.6 36.5,16.7 C36.6,16.8 36.6,16.9 36.6,16.9 C36.6,16.9 36.6,17 36.5,17.1 C36.4,17.2 36.4,17.3 36.3,17.3 L36,18 L36,33.2 L36.1,37.1 C36.1,37.3 36,37.5 36,37.6 C35.9,37.7 35.8,37.9 35.5,38 C35.3,38.2 34.9,38.3 34.5,38.2 C34,38.2 33.8,38.1 33.7,38 C33.6,37.9 33.6,37.7 33.5,37.5 L33.6,33.6 L33.6,19 L33.7,19 Z M37.4,4.4 C35.5,6.5 33.5,8.6 31.3,10.5 L30.4,11.3 L30,11.7 C29.9,11.8 29.9,11.8 29.8,11.8 C29.7,11.8 29.7,11.8 29.7,11.7 C29.7,11.7 29.7,11.6 29.7,11.6 C29.7,11.6 29.7,11.5 29.8,11.4 L30.4,10.6 L31.4,9 C32.3,7.7 33,6.3 33.7,5 C34.4,3.6 34.8,2.7 35,2.2 L35.4,1.1 C35.4,1 35.5,0.9 35.5,0.9 C35.5,0.9 35.7,1 35.8,1.1 L37.8,3 C38,3.2 38.1,3.3 38.2,3.5 C38.3,3.6 38.3,3.8 38.3,3.9 C38.3,4 38.1,4.1 37.7,4.3 L37.4,4.4 Z M46.7,14.8 L52,14.8 L52.9,13.1 C53.2,12.6 53.4,12.3 53.5,12.3 C53.6,12.3 53.9,12.5 54.3,13 L55.7,14.8 C56,15.2 56.2,15.5 56.2,15.6 C56.2,15.8 56.1,15.8 56,15.8 L38.2,15.8 L38,15.8 C37.9,15.8 37.8,15.7 37.7,15.7 C37.6,15.7 37.6,15.5 37.6,15.2 C37.6,14.9 37.7,14.8 37.9,14.8 L44.2,14.8 L44.2,8.5 L39.2,8.5 C39,8.5 38.9,8.3 38.9,7.9 C38.9,7.5 39,7.3 39.2,7.3 L44.2,7.3 L44.2,4.5 L44.2,1 C44.3,0.9 44.4,0.9 44.6,0.9 L47.1,1.5 C47.3,1.6 47.5,1.6 47.6,1.7 C47.7,1.8 47.7,1.9 47.7,1.9 C47.7,1.9 47.5,2.2 47.2,2.5 L46.7,3.1 L46.7,7.3 L50,7.3 L51.1,5.3 C51.2,5.1 51.3,5 51.4,5 C51.5,5 51.6,5.1 51.8,5.3 L53.5,7.3 C53.8,7.7 54,8 54,8.1 C54,8.3 53.8,8.4 53.6,8.4 L51.6,8.4 L46.8,8.4 L46.8,14.8 L46.7,14.8 Z M48.5,22 L48.5,20 L48.4,16.4 C48.5,16.3 48.5,16.3 48.6,16.3 L48.9,16.4 L51.4,17.2 C51.6,17.3 51.7,17.3 51.8,17.4 C51.9,17.5 51.9,17.6 51.9,17.7 C51.9,17.8 51.8,18 51.6,18.2 L51,18.9 L51,22 L52,22 L52.9,20.5 C53.1,20.2 53.2,20 53.3,19.9 C53.4,19.8 53.4,19.8 53.5,19.8 C53.6,19.8 53.8,20 54.1,20.3 L55.4,21.8 C55.7,22.2 55.9,22.5 55.9,22.6 C55.9,22.7 55.9,22.8 55.8,22.8 C55.7,22.8 55.6,23 55.4,23 L53.8,23 L51.7,23 L50.9,23 L50.9,35.7 C50.9,36.1 50.9,36.4 50.8,36.6 C50.7,36.8 50.5,37 50.2,37.3 C49.9,37.6 49.5,37.8 49.1,38 C48.7,38.2 48.3,38.3 48.1,38.3 L47.6,38.3 C47.5,38.3 47.4,38.3 47.3,38.3 C47.2,38.3 47.2,38.2 47.1,38 L46.9,37 C46.7,36.1 46.2,35.4 45.3,35 L44.3,34.5 C44.2,34.5 44.1,34.4 44.1,34.3 C44.1,34.2 44,34.1 44,34.1 C44,34.1 44,33.9 44.1,33.9 C44.2,33.9 44.3,33.8 44.4,33.8 L45.8,34 C46.2,34.1 46.7,34.1 47.3,34.1 C47.9,34.1 48.2,34 48.3,33.9 C48.4,33.8 48.5,33.5 48.5,33.3 L48.5,23 L38,23 C37.8,23 37.7,22.8 37.7,22.5 C37.7,22.2 37.8,22 38,22 L48.5,22 Z M40.7,25 C40.6,24.9 40.6,24.8 40.6,24.7 C40.6,24.6 40.7,24.5 40.8,24.5 C40.9,24.5 41.1,24.5 41.3,24.7 C41.4,24.8 41.7,25 42.4,25.4 C43.1,25.8 43.6,26.4 44,27.3 C44.4,28.2 44.7,28.9 44.7,29.6 C44.7,30 44.6,30.3 44.5,30.6 C44.4,30.9 44.2,31.2 44,31.6 C43.7,32 43.4,32.1 43,32.1 C42.6,32.1 42.3,31.9 42,31.6 C41.7,31.3 41.6,30.9 41.6,30.7 C41.6,30.4 41.6,30.1 41.6,29.7 C41.6,29.3 41.6,29 41.6,28.8 C41.6,28.1 41.5,27.6 41.4,27.1 C41.3,26.6 41.2,26.3 41.1,26.1 C41,25.9 40.9,25.5 40.7,25 Z" id="Shape"></path>
                <path d="M78.5,4.1 L79.8,1.9 C79.9,1.7 80,1.6 80.1,1.6 C80.2,1.6 80.4,1.7 80.6,2 L82.5,4.1 C82.8,4.4 82.9,4.7 82.9,4.9 C82.9,5.2 82.7,5.4 82.4,5.4 L73.4,5.4 C73.2,5.7 73,6 72.7,6.2 C72.7,7.5 72.7,8.6 72.7,9.6 C72.7,10.6 72.7,11.7 72.6,13 L72.5,15.6 L72.5,16.1 L80.4,16.1 L81.7,13.8 C81.9,13.5 82,13.3 82.1,13.3 C82.2,13.3 82.3,13.4 82.5,13.6 L84.6,16.1 C84.7,16.3 84.8,16.5 84.9,16.6 C85,16.7 85,16.8 85,16.8 C85,17 84.8,17.1 84.3,17.1 L81.2,17.1 L73.4,17.1 C73.5,17.8 73.8,19 74.2,20.6 C74.6,22.2 75.5,24.3 77.1,26.8 C78.7,29.3 80.1,31.1 81.4,32 C82.7,33 83.7,33.6 84.3,33.7 L85.1,33.9 C85.2,33.9 85.3,34.1 85.3,34.3 C85.3,34.5 85.2,34.6 85,34.7 L84.3,34.9 C84.1,35 83.8,35.1 83.4,35.4 C83,35.7 82.7,35.9 82.5,36.2 C82.2,36.5 82,36.8 81.9,37.1 C81.8,37.4 81.6,37.6 81.5,37.6 C81.4,37.6 81.2,37.5 80.9,37.3 C80.6,37.1 79.8,36.3 78.6,34.9 C77.4,33.5 76.3,31.8 75.4,29.6 C74.5,27.4 73.8,25.1 73.5,22.6 C73.2,20.1 72.9,18.2 72.8,16.8 L72.3,16.8 C72.3,17 72.3,17.2 72.3,17.3 L72.2,19.1 C71.9,22.8 71.3,25.6 70.4,27.5 C69.5,29.4 68.3,31.1 66.8,32.8 C65.3,34.5 63.5,35.9 61.1,37.2 L60.1,38 C60,38.1 59.9,38.1 59.7,38.1 C59.6,38.1 59.5,38.1 59.5,38 C59.5,37.9 59.5,37.9 59.5,37.8 C59.5,37.7 59.6,37.6 59.8,37.4 L61,36.5 C62.4,35.4 63.9,33.8 65.5,31.7 C67.1,29.6 68.1,27.5 68.5,25.2 C68.9,23 69.2,21.2 69.3,20 C69.4,18.8 69.5,17.8 69.5,17 L59.1,17 C58.9,17 58.8,16.8 58.7,16.5 C58.7,16.1 58.8,16 59.1,16 L69.6,16 C69.6,15.8 69.6,15.5 69.6,15.2 C69.6,14.9 69.6,13.8 69.7,12.1 C69.7,10.3 69.7,9.4 69.7,9.3 L69.7,5.3 L60.9,5.3 C60.5,5.3 60.4,5.1 60.4,4.7 C60.4,4.3 60.6,4.1 60.9,4.1 L78.5,4.1 Z" id="Shape"></path>
                <path d="M88.6,5.6 C88.4,5.6 88.3,5.5 88.2,5.4 C88.1,5.3 88.1,5.1 88.1,4.8 C88.1,4.5 88.2,4.4 88.5,4.4 L109.5,4.4 L110.7,2.1 C111.1,1.4 111.3,1.1 111.4,1.1 C111.5,1.1 111.7,1.3 112.1,1.8 L114.6,4.8 C114.7,5 114.8,5.1 114.8,5.3 C114.8,5.5 114.7,5.6 114.5,5.6 L102.8,5.6 C102.6,6 102.5,6.2 102.5,6.2 C102.5,6.2 102.3,6.4 101.9,6.8 L101.9,32.2 L102.1,36.8 C102,37 102,37.2 101.9,37.3 C101.8,37.4 101.6,37.6 101.2,37.8 C100.8,38 100.4,38.1 99.9,38.1 C99.6,38.1 99.3,38 99.3,37.9 C99.2,37.8 99.2,37.6 99.1,37.4 L99.2,32.6 L99.2,5.6 L88.6,5.6 Z M103.5,14.1 C103.5,13.9 103.6,13.8 103.8,13.8 C103.9,13.8 104.6,14 105.9,14.4 C107.3,14.8 108.5,15.8 109.6,17.4 C110.7,19 111.2,20.5 111.1,21.9 C111,23.3 110.5,24 109.6,24 C109.4,24 109.1,23.8 108.8,23.5 C108.5,23.2 108.2,22.6 107.9,21.7 L106.9,19 C106.5,18 106.1,17.2 105.7,16.6 C105.3,16 104.8,15.4 104.3,15 C103.8,14.7 103.5,14.4 103.5,14.1 Z" id="Shape"></path>
            </g>
            <g id="Group">
                <path d="M2.8,5.5 L0.8,5.5 C0.7,5.5 0.6,5.4 0.6,5.2 C0.6,5 0.7,5 0.8,5 L2.8,5 L2.8,2 L2.8,0.4 C2.8,0.4 2.8,0.4 2.9,0.4 C2.9,0.4 3,0.4 3.1,0.5 L4.3,1 C4.4,1.1 4.4,1.2 4.3,1.3 L3.9,1.7 L3.9,5 L4.2,5 L4.5,4.4 C4.6,4.3 4.6,4.2 4.7,4.2 C4.8,4.2 4.9,4.3 5.1,4.6 L5.5,5 C5.7,5.2 5.7,5.3 5.7,5.4 C5.7,5.5 5.6,5.5 5.5,5.5 L3.9,5.5 L3.9,7.9 C4.7,8.2 5.2,8.5 5.4,8.9 C5.5,9.3 5.6,9.6 5.6,9.8 L5.6,9.9 L6.2,9.9 C6.2,9.8 6.2,9.7 6.2,9.7 L6.3,8.4 C6.3,7.7 6.4,7.2 6.4,6.8 L6.4,5.8 C6.2,6.2 6,6.6 5.7,7 L5.5,7.5 C5.4,7.7 5.3,7.7 5.3,7.7 C5.3,7.7 5.3,7.6 5.3,7.4 L5.5,6.8 C5.6,6.3 5.8,5.7 6,5 C6.2,4.3 6.3,3.9 6.4,3.5 L6.6,2.5 C6.7,2 6.8,1.7 6.8,1.5 L6.9,0.7 L6.9,0.4 C6.9,0.4 6.9,0.4 7,0.4 L7.3,0.6 L8.4,1.3 C8.5,1.4 8.5,1.4 8.6,1.5 C8.7,1.6 8.6,1.7 8.4,1.7 L8.2,1.8 L7.4,3.6 L11.1,3.6 L11.5,2.7 C11.5,2.6 11.6,2.5 11.6,2.5 C11.6,2.5 11.7,2.5 11.7,2.6 L12.7,3.7 C12.8,3.8 12.8,3.9 12.8,3.9 C12.8,4 12.8,4 12.7,4 L12.1,4 L7.2,4 L6.6,5.5 L7.6,6.2 L10.6,6.2 L10.9,5.5 C10.9,5.4 11,5.3 11,5.3 C11,5.3 11.1,5.3 11.2,5.4 L12.1,6.2 C12.2,6.3 12.2,6.3 12.2,6.4 C12.2,6.5 12.2,6.5 12.1,6.6 L11.8,7 L11.7,10 L11.8,10 L12.1,9.4 C12.2,9.2 12.3,9.1 12.3,9.1 C12.3,9.1 12.4,9.1 12.5,9.3 L13.2,10.1 C13.3,10.2 13.3,10.3 13.3,10.4 C13.3,10.5 13.3,10.5 13.2,10.5 L12.3,10.5 L11.7,10.5 C11.7,10.6 11.7,11 11.7,11.5 C11.7,12 11.7,12.5 11.7,12.9 L11.6,14 L11.6,14.2 L11.7,14.2 L12,13.5 C12.1,13.4 12.1,13.3 12.1,13.3 C12.1,13.3 12.2,13.3 12.3,13.5 L12.9,14.2 C13.1,14.4 13.2,14.5 13.1,14.6 C13,14.7 13,14.7 13,14.7 L11.9,14.7 L11.5,14.7 C11.5,14.9 11.5,15 11.5,15.1 C11.5,15.2 11.5,15.3 11.5,15.5 C11.5,15.6 11.4,15.9 11.4,16.2 C11.3,16.5 11.2,16.8 11.1,17 C11,17.2 10.8,17.4 10.6,17.6 C10.4,17.8 10.1,17.9 9.8,18 C9.7,18 9.7,18 9.6,18 C9.6,18 9.6,17.9 9.5,17.7 C9.4,17.5 9.4,17.3 9.3,17.2 C9.2,17.1 9,16.8 9,16.7 C9,16.6 8.8,16.6 8.7,16.5 L8.3,16.3 C8.3,16.3 8.2,16.2 8.2,16.2 C8.2,16.2 8.2,16.1 8.2,16.1 C8.2,16.1 8.3,16 8.3,16 L8.7,16.1 C9.3,16.2 9.7,16.2 9.9,16 C10.1,15.8 10.2,15.5 10.2,15.2 L10.2,14.9 L10.2,14.6 L6.8,14.6 L6.5,15 C6.4,15.1 6.4,15.2 6.3,15.2 C6.3,15.2 6.2,15.2 6.1,15.1 L5.5,14.5 C5.3,14.3 5.3,14.2 5.3,14.2 C5.3,14.2 5.3,14.1 5.3,14.1 L5.6,14 L5.8,13.8 C5.9,13.1 5.9,12.6 6,12.1 C6,11.7 6.1,11.1 6.1,10.5 L5.3,10.5 C5.1,10.7 5,10.7 4.8,10.7 C4.6,10.7 4.5,10.6 4.4,10.5 C4.3,10.4 4.3,10.2 4.3,10.1 C4.3,10 4.3,9.8 4.3,9.5 C4.3,9.2 4.3,9 4.2,8.8 C4.1,8.6 4.2,8.6 4.1,8.5 L3.9,8.3 L3.9,15.2 L4,17.3 C4,17.4 4,17.5 3.9,17.5 C3.8,17.5 3.8,17.6 3.7,17.7 C3.6,17.8 3.4,17.8 3.2,17.8 C3,17.8 2.9,17.8 2.8,17.7 C2.7,17.6 2.7,17.5 2.7,17.4 L2.8,15.5 L2.8,10.4 C2.6,10.7 2.5,11.1 2.2,11.5 C2,11.9 1.8,12.3 1.6,12.7 C1.4,13 1.3,13.2 1.2,13.4 C1.1,13.6 1.1,13.6 1.1,13.6 L0.9,13.9 C0.8,14 0.8,14 0.7,14 C0.6,14 0.7,13.9 0.7,13.8 L1,13.1 C1.5,11.8 1.9,10.4 2.2,9 C2.5,7.6 2.7,6.5 2.8,5.5 Z M6.9,14.2 L10.4,14.2 C10.4,14.1 10.4,14 10.4,13.9 C10.4,13.8 10.4,13.4 10.5,12.9 L10.5,11.8 L10.5,10.7 L7.2,10.7 L6.9,14.2 Z M7.2,10 L10.6,10 C10.6,9.8 10.6,9.7 10.6,9.6 C10.6,9.5 10.6,9.3 10.6,9 C10.6,8.7 10.6,8.3 10.6,7.8 C10.6,7.4 10.6,7.1 10.6,7 L10.6,6.8 L7.5,6.8 L7.2,10 Z M8.1,11.2 C8.1,11.1 8.2,11 8.3,11.1 C8.9,11.5 9.2,11.8 9.4,12.2 C9.5,12.5 9.6,12.8 9.5,13.1 C9.5,13.3 9.4,13.5 9.3,13.6 C9.2,13.7 9.1,13.8 8.9,13.8 C8.7,13.8 8.6,13.7 8.5,13.5 C8.5,13.4 8.4,13.3 8.4,13.2 C8.4,13.1 8.4,12.9 8.4,12.6 C8.4,12.3 8.4,12.1 8.4,12 C8.4,11.9 8.3,11.7 8.2,11.5 C8.1,11.3 8.1,11.2 8.1,11.2 Z M8.1,7.1 C8.1,7 8.3,7.1 8.4,7.2 C8.6,7.3 8.8,7.4 8.9,7.5 C9,7.6 9.2,7.8 9.3,7.9 C9.4,8.1 9.5,8.3 9.5,8.5 C9.5,8.7 9.5,9 9.4,9.2 C9.3,9.4 9.2,9.6 9,9.6 C8.8,9.6 8.7,9.5 8.6,9.3 C8.5,9.2 8.5,9 8.5,8.8 L8.5,8.3 C8.5,7.9 8.4,7.7 8.3,7.5 C8.2,7.3 8.1,7.2 8.1,7.1 C8.1,7 8.1,7.1 8.1,7.1 Z" id="Shape"></path>
                <path d="M23.5,4.8 L23.7,4.4 C23.9,4.2 24,4.1 24,4.1 L24.2,4.4 L24.8,5 C24.8,5 24.9,5.1 24.9,5.2 C24.9,5.3 24.9,5.3 24.8,5.3 L23,5.3 L23,6.4 L23.7,6.4 L24,6 C24.1,5.9 24.1,5.8 24.2,5.8 C24.2,5.8 24.3,5.9 24.4,6 L24.9,6.6 C25,6.7 25,6.8 25,6.9 C25,7 25,7 24.9,7 L23.1,7 L23.1,8.2 L25.1,8.2 L25.5,7.5 C25.6,7.3 25.7,7.2 25.7,7.2 C25.7,7.2 25.9,7.3 26,7.5 L26.7,8.2 C26.8,8.3 26.9,8.5 26.9,8.5 C26.9,8.5 26.9,8.6 26.9,8.6 C26.9,8.6 26.8,8.6 26.8,8.6 L25.9,8.6 L23.3,8.6 C23.3,8.7 23.5,8.8 23.6,9 C23.8,9.2 24.1,9.6 24.7,10 C25.3,10.4 26,10.7 26.9,10.8 L27.4,10.8 C27.4,10.8 27.5,10.8 27.5,10.9 C27.5,11 27.5,11 27.5,11 C27.5,11 27.5,11 27.5,11.1 C27.5,11.2 27.5,11.2 27.5,11.2 L27.3,11.3 C27,11.5 26.7,11.8 26.6,12.1 C26.4,12.4 26.3,12.6 26.3,12.6 C26,12.6 25.4,12.1 24.5,11.2 L24.4,11.3 L24.4,12.8 L24.5,14.4 C24.5,14.5 24.5,14.5 24.4,14.6 C24.3,14.7 24.3,14.7 24.2,14.7 C24.1,14.7 24,14.8 24,14.8 C24,14.8 23.9,14.8 23.7,14.8 C23.5,14.8 23.4,14.8 23.4,14.7 C23.4,14.6 23,14.8 23,14.7 L23,10.8 L18.8,10.8 L18.8,15 C18.8,15.1 18.7,15.2 18.6,15.3 C18.5,15.4 18.3,15.5 18,15.5 C17.9,15.5 17.8,15.5 17.8,15.4 C17.8,15.4 17.7,15.3 17.7,15.2 L17.7,13.5 L17.7,11 C16.8,11.7 16.1,12.2 15.5,12.5 L15,12.8 C14.8,12.9 14.7,13 14.6,13 C14.5,13 14.5,13 14.5,13 C14.5,13 14.5,12.9 14.5,12.9 C14.5,12.8 14.5,12.7 14.6,12.7 L14.9,12.4 L15.3,12 C15.8,11.6 16.3,11.1 16.8,10.4 C17.3,9.7 17.7,9.3 17.8,9 C17.9,8.8 18,8.6 18.1,8.5 L15,8.5 C14.9,8.5 14.8,8.4 14.8,8.2 C14.8,8 14.8,7.9 15,7.9 L18.4,7.9 L18.4,6.9 L17,6.9 L16.9,6.9 C16.9,6.9 16.8,6.9 16.8,6.8 C16.8,6.8 16.8,6.7 16.8,6.6 C16.8,6.5 16.9,6.4 16.9,6.4 L18.5,6.4 L18.5,5.3 L17,5.3 L16.9,5.3 C16.9,5.3 16.8,5.3 16.8,5.2 C16.8,5.2 16.8,5.1 16.8,5 C16.8,4.9 16.9,4.8 16.9,4.8 L18.5,4.8 L18.5,4.6 L18.5,3.3 L18.5,3.2 L16.8,3.2 C16.8,3.3 16.8,3.4 16.8,3.5 C16.8,3.6 16.8,3.7 16.8,3.9 C16.8,4.1 16.8,4.3 16.7,4.6 C16.6,4.8 16.5,5.1 16.4,5.3 C16.3,5.5 16,5.7 15.8,5.7 C15.6,5.7 15.4,5.6 15.2,5.4 C15,5.2 15.1,5 15.1,4.7 C15.1,4.4 15.2,4.2 15.3,3.9 C15.3,3.9 15.5,3.7 15.7,3.5 C15.9,3.3 16.1,2.9 16.2,2.5 L16.3,2.1 C16.3,2 16.3,2 16.4,1.9 C16.5,1.8 16.5,2 16.5,2.1 L16.6,2.5 L16.7,2.7 L20.8,2.7 C20.6,2.6 20.5,2.6 20.5,2.5 C20.5,2.4 20.4,2.3 20.3,2.2 C20.3,2.1 20.2,1.9 20.1,1.5 C20,1.1 19.9,0.8 19.7,0.6 L19.5,0.4 C19.4,0.3 19.4,0.3 19.4,0.2 C19.4,0.1 19.5,0.1 19.6,0.1 C20,0.1 20.4,0.2 20.8,0.4 C21.2,0.6 21.5,0.9 21.5,1.3 C21.5,1.7 21.5,1.9 21.4,2.1 C21.3,2.3 21.2,2.4 21.2,2.5 L21,2.7 L25,2.7 L25.3,2.2 C25.4,2 25.5,1.9 25.5,1.9 C25.5,1.9 25.7,2 25.8,2.2 L26.6,3.2 C26.9,3.5 27,3.6 27,3.8 C27,4 26.8,4 26.5,4 C26.3,4 26,4 25.8,4.1 C25.6,4.2 25.4,4.3 25.2,4.4 L24.9,4.7 C24.8,4.8 24.7,4.9 24.7,4.8 C24.7,4.7 24.7,4.6 24.7,4.6 L25,3.3 L18.7,3.3 L19.6,3.6 C19.8,3.7 19.9,3.7 19.9,3.7 C19.9,3.7 19.9,3.8 19.9,3.8 C19.9,3.8 19.9,3.9 19.7,4 L19.5,4.3 L19.5,4.8 L21.9,4.8 L21.9,4.3 C21.9,3.9 21.9,3.6 21.9,3.5 C21.9,3.4 21.9,3.4 21.9,3.4 L22.1,3.4 L23.1,3.6 C23.2,3.6 23.3,3.7 23.3,3.7 C23.3,3.7 23.3,3.8 23.3,3.8 C23.3,3.8 23.3,3.8 23.3,3.9 C23.3,4 23.2,4 23.2,4 L22.9,4.2 L22.9,4.7 L23.5,4.7 L23.5,4.8 Z M21.4,12.2 C21.4,12.6 21.3,13.1 21.3,13.7 C21.3,14.3 21.1,14.9 20.9,15.4 C20.7,15.9 20.4,16.3 20,16.6 C19.6,16.9 19.2,17.2 18.7,17.4 C18.2,17.6 17.6,17.8 16.9,18 L16.3,18.1 C16.2,18.1 16.2,18.1 16.1,18.1 C16,18.1 16,18.1 16,18.1 C16,18.1 16,18 16,18 C16,17.9 16,17.9 16.1,17.9 L16.4,17.8 L16.8,17.7 C17.4,17.5 17.9,17.3 18.3,17 C18.7,16.7 19.1,16.4 19.4,16.2 C19.7,15.9 19.9,15.6 20,15.1 C20.2,14.6 20.2,14.2 20.3,13.7 C20.4,13.2 20.4,12.8 20.4,12.4 L20.4,11.3 C20.4,11.3 20.4,11.2 20.4,11.2 C20.4,11.2 20.4,11.2 20.5,11.2 L21.7,11.6 C21.8,11.6 21.9,11.7 21.9,11.7 C21.9,11.7 22,11.8 22,11.8 C22,11.8 22,11.9 21.9,12 L21.4,12.2 Z M22.9,10.2 C22.9,10.1 23,10 23.1,9.9 C23.2,9.8 23.2,9.9 23.3,10 C23.1,9.5 22.9,9 22.9,8.6 L19.5,8.6 L19.7,8.7 C19.8,8.8 19.8,8.8 19.8,8.8 C19.8,8.8 19.8,8.9 19.8,8.9 C19.8,8.9 19.8,9 19.7,9 L19.5,9.1 L18.7,9.9 L22.9,9.9 L22.9,10.2 Z M21.9,6.4 L21.9,5.3 L19.5,5.3 L19.5,6.4 L21.9,6.4 Z M21.9,8.1 L21.9,6.9 L19.5,6.9 L19.5,8.1 L21.9,8.1 Z M21.3,15.1 C21.3,15 21.4,15 21.5,15 C21.5,15 21.6,15 21.7,15 C21.8,15 22.1,15.1 22.5,15.1 C22.9,15.1 23.5,15.3 24.1,15.5 C24.7,15.8 25.2,16 25.3,16.4 C25.5,16.7 25.6,17 25.6,17.3 C25.6,17.6 25.6,17.8 25.5,18 C25.4,18.2 25.3,18.3 25.1,18.3 C24.9,18.3 24.7,18.2 24.4,17.9 C24.4,17.9 24.1,17.6 23.8,17 C23.5,16.4 23,16.1 22.7,15.9 C22.3,15.7 22.1,15.5 21.9,15.4 L21.5,15.2 C21.4,15.2 21.3,15.2 21.3,15.1 Z" id="Shape"></path>
                <path d="M31.4,8.1 L31.6,8.3 C31.7,8.4 31.8,8.5 31.8,8.5 C31.8,8.5 31.8,8.5 31.8,8.6 C31.8,8.6 31.8,8.6 31.8,8.7 C31.8,8.7 31.8,8.8 31.7,8.9 L31.5,9 L31.5,15.7 L31.5,17.4 C31.5,17.8 31.3,18 31,18 C30.7,18 30.6,18 30.5,17.9 C30.4,17.8 30.4,17.8 30.4,17.7 L30.5,15.7 L30.5,9.5 C30.4,9.7 30.2,10 29.9,10.4 C29.6,10.8 29.5,11 29.4,11.1 L29.1,11.5 C28.9,11.8 28.7,11.9 28.6,11.9 C28.6,11.9 28.5,11.9 28.5,11.9 C28.5,11.9 28.5,11.9 28.5,11.8 C28.5,11.7 28.5,11.8 28.5,11.7 C28.5,11.6 28.5,11.6 28.6,11.6 L28.8,11.3 L29.2,10.6 C29.4,10.2 29.6,9.8 29.7,9.4 C29.8,9.1 30,8.6 30.3,7.9 C30.6,7.2 30.7,6.8 30.8,6.5 C30.9,6.2 31,6 31,5.7 L31.2,4.9 C31.2,4.9 31.2,4.8 31.2,4.8 C31.2,4.8 31.3,4.8 31.4,4.9 L32.4,5.7 C32.5,5.8 32.5,5.8 32.6,5.9 C32.6,5.9 32.7,6 32.7,6.1 C32.7,6.2 32.6,6.2 32.5,6.3 L32.2,6.5 L31.4,8.1 Z M32.4,1.9 C31.9,2.7 31.4,3.4 31,4 C30.6,4.6 30.1,5.2 29.5,5.8 L29.2,6.2 C29,6.4 28.9,6.5 28.9,6.5 C28.9,6.5 28.9,6.5 28.8,6.5 C28.8,6.5 28.8,6.5 28.8,6.4 C28.8,6.4 28.8,6.3 28.8,6.2 L29,5.8 L29.3,5.2 C29.6,4.7 29.9,4 30.3,3.2 C30.8,2.3 31,1.6 31.2,1 L31.4,0.4 C31.4,0.3 31.4,0.3 31.5,0.3 C31.6,0.3 31.6,0.3 31.6,0.4 L32.7,1.2 C32.8,1.3 32.9,1.4 32.9,1.4 C32.9,1.4 32.9,1.5 32.9,1.5 C32.9,1.5 32.8,1.6 32.7,1.6 L32.4,1.9 Z M33.2,12.8 C33.3,12.9 33.3,13.1 33.4,13.4 C33.5,13.7 33.5,14 33.5,14.2 C33.5,14.4 33.5,14.6 33.5,14.8 C33.5,15.3 33.4,15.8 33.2,16.2 C33,16.6 32.8,16.8 32.5,16.8 C32.3,16.8 32.1,16.7 32,16.5 C31.9,16.3 31.9,16.1 31.8,15.9 C31.8,15.7 31.9,15.4 32.1,15.1 L32.4,14.7 C32.5,14.5 32.6,14.3 32.7,14.1 C32.8,13.9 32.8,13.7 32.9,13.3 L33,12.9 C33.1,12.7 33.2,12.7 33.2,12.8 Z M39.7,10.7 L40.1,10 C40.2,9.8 40.3,9.7 40.3,9.7 C40.3,9.7 40.5,9.8 40.6,10 L41.2,10.7 C41.3,10.9 41.4,11 41.4,11.1 C41.4,11.2 41.4,11.2 41.3,11.2 L32.3,11.2 C32.2,11.2 32.2,11.2 32.1,11.1 C32.1,11.1 32,11 32,10.8 C32,10.7 32.1,10.6 32.2,10.6 L39.7,10.6 L39.7,10.7 Z M32.7,3.4 C32.6,3.4 32.6,3.4 32.5,3.3 C32.4,3.2 32.4,3.2 32.4,3 C32.4,2.8 32.5,2.8 32.6,2.8 L35.6,2.8 L35.6,1.7 L35.6,0.3 C35.6,0.3 35.6,0.2 35.6,0.2 C35.6,0.2 35.7,0.2 35.8,0.2 L36.9,0.5 C37,0.5 37.1,0.6 37.1,0.6 C37.1,0.6 37.2,0.7 37.2,0.7 C37.2,0.7 37.2,0.7 37.2,0.8 C37.2,0.8 37.2,0.8 37.1,0.9 L36.7,1.4 L36.7,2.8 L38.7,2.8 L39.1,2.1 C39.2,1.9 39.3,1.8 39.3,1.7 C39.3,1.7 39.4,1.7 39.4,1.7 C39.4,1.7 39.6,1.8 39.7,2 L40.4,2.8 C40.5,3 40.6,3.1 40.6,3.2 C40.6,3.3 40.5,3.3 40.5,3.3 L36.7,3.3 L36.6,5.3 L38.7,5.3 L39.1,5 C39.2,4.8 39.3,4.8 39.3,4.8 C39.3,4.8 39.4,4.9 39.6,5 L40.1,5.5 C40.2,5.6 40.3,5.7 40.3,5.7 C40.3,5.7 40.3,5.8 40.3,5.8 C40.3,5.8 40.2,5.9 40.1,6.1 L40,6.4 L40,7.8 L40,9.3 C39.9,9.5 39.8,9.6 39.6,9.7 C39.4,9.8 39.2,9.8 39.2,9.8 C39.1,9.8 39,9.7 39,9.6 L39,9 L34.3,9 L34.3,9.7 C34.3,9.8 34.2,9.9 34.1,10 C34,10.1 33.8,10.2 33.4,10.2 C33.3,10.2 33.3,10.2 33.2,10.2 C33.2,10.2 33.1,10.1 33.1,10 L33.1,8.4 L33.1,6.5 L33.1,4.9 C33.1,4.8 33.2,4.8 33.2,4.8 C33.2,4.8 33.3,4.8 33.4,4.9 L34.3,5.5 L35.7,5.5 L35.7,3.5 L32.7,3.4 Z M35.1,6 L34.2,6 L34.2,8.5 L35.1,8.5 L35.1,6 Z M35.4,13.1 L35.4,16 C35.4,16.2 35.5,16.4 35.6,16.4 C35.7,16.4 36,16.5 36.3,16.5 C36.9,16.5 37.4,16.5 37.7,16.3 C38,16.1 38.2,16 38.3,15.9 C38.4,15.7 38.5,15.4 38.6,15.1 L38.9,13.9 C38.9,13.8 39,13.7 39.1,13.7 C39.1,13.7 39.2,13.7 39.2,13.8 C39.2,13.9 39.2,13.9 39.2,13.9 C39.2,13.9 39.2,14 39.2,14 L39.1,15.1 C39.1,15.2 39.1,15.3 39.1,15.3 C39.1,15.4 39.1,15.5 39.1,15.5 C39.1,15.7 39.2,15.9 39.3,16 C39.4,16.2 39.4,16.3 39.5,16.4 C39.6,16.5 39.5,16.5 39.5,16.6 C39.5,17 39.3,17.3 38.9,17.5 C38.5,17.7 37.8,17.8 37,17.8 C36.2,17.8 35.7,17.8 35.3,17.7 C34.9,17.6 34.7,17.4 34.7,17.2 C34.7,17 34.6,16.7 34.6,16.6 L34.6,13.6 L34.6,12 C34.6,12 34.6,12 34.7,11.9 L34.9,12 L35.9,12.4 C36,12.4 36,12.5 36,12.6 C36,12.7 35.9,12.8 35.8,12.9 L35.4,13.1 Z M37,6 L36.1,6 L36,6.2 L36,8.5 L37,8.5 L37,6 Z M36,11.8 C36.1,11.8 36.1,11.7 36,11.8 C36.1,11.7 36.2,11.7 36.3,11.8 C36.3,11.8 36.4,11.9 36.7,12 C37,12.1 37.2,12.4 37.4,12.7 C37.6,13 37.7,13.4 37.7,13.6 C37.7,13.9 37.7,14.1 37.6,14.3 C37.5,14.6 37.3,14.7 37,14.7 C36.9,14.7 36.7,14.7 36.6,14.6 C36.5,14.5 36.4,14.4 36.4,14.3 C36.4,14.2 36.3,13.9 36.3,13.6 C36.3,13.2 36.3,13 36.2,12.8 C36.1,12.6 36.1,12.4 36,12.3 L35.8,11.9 C36.1,11.9 36,11.8 36,11.8 Z M38.9,6 L37.9,6 L37.8,6.2 L37.8,8.5 L38.9,8.5 L38.9,6 Z M39.1,12.6 C39.1,12.6 39.1,12.5 39.2,12.5 C39.2,12.5 39.4,12.6 39.7,12.8 C40,13 40.4,13.3 40.8,13.7 C41.2,14.1 41.4,14.6 41.4,15.2 C41.4,15.4 41.4,15.6 41.3,15.8 C41.2,16 41.1,16.2 40.9,16.3 C40.7,16.4 40.5,16.4 40.3,16.1 C40.2,16 40.1,15.8 40.1,15.7 C40.1,15.5 40,15.2 40,14.8 C40,14.4 39.9,14.1 39.8,13.8 C39.7,13.5 39.6,13.3 39.4,13 L39.2,12.7 C39.1,12.7 39.1,12.6 39.1,12.6 Z" id="Shape"></path>
                <path d="M44.2,11.9 L44.2,4.3 L42.8,4.3 C42.7,4.3 42.6,4.2 42.6,4 C42.6,3.8 42.6,3.7 42.8,3.7 L44.2,3.7 L44.2,1.9 L44.1,0.3 C44.1,0.3 44.1,0.2 44.2,0.2 C44.3,0.2 44.3,0.2 44.5,0.3 L45.4,0.7 C45.5,0.8 45.6,0.8 45.6,0.8 C45.6,0.8 45.6,0.9 45.6,0.9 C45.6,0.9 45.6,1 45.5,1.1 L45.3,1.3 L45.3,3.8 L47.1,3.8 L47.1,1.7 L47.1,0.3 C47.1,0.3 47.1,0.2 47.2,0.2 L47.5,0.3 L48.4,0.6 C48.5,0.6 48.6,0.7 48.6,0.7 C48.6,0.7 48.6,0.8 48.6,0.8 C48.6,0.8 48.6,0.9 48.5,0.9 L48.2,1.2 L48.2,3.7 L48.3,3.7 L48.7,3 C48.8,2.9 48.8,2.8 48.9,2.8 C48.9,2.8 49,2.9 49.1,3.1 L49.7,4 C49.7,4.1 49.8,4.1 49.8,4.1 C49.8,4.1 49.8,4.2 49.8,4.2 C49.8,4.2 49.8,4.2 49.8,4.2 C49.8,4.2 49.8,4.3 49.7,4.3 L48.7,4.3 L48.2,4.3 L48.2,11.8 L48.6,11.1 C48.7,11 48.8,10.9 48.8,10.9 C48.8,10.9 48.9,11 49,11.1 L49.6,12.1 C49.7,12.2 49.7,12.3 49.7,12.3 C49.7,12.3 49.6,12.4 49.5,12.4 L42.8,12.4 L42.7,12.4 C42.6,12.4 42.6,12.4 42.5,12.3 C42.4,12.2 42.5,12.2 42.4,12 C42.3,11.8 42.5,11.8 42.6,11.8 L44.2,11.8 L44.2,11.9 Z M45.7,14.1 C45.1,14.8 44.6,15.5 44.1,16 C43.6,16.5 43.3,16.9 43.2,17 L42.9,17.3 C42.8,17.4 42.8,17.4 42.8,17.4 C42.8,17.4 42.8,17.4 42.8,17.4 C42.8,17.4 42.8,17.4 42.8,17.3 C42.8,17.2 42.8,17.2 42.9,17.1 L43.2,16.7 C43.4,16.3 43.7,15.9 44,15.2 C44.3,14.6 44.5,14.1 44.7,13.7 L44.9,13.2 L45,12.8 C45,12.8 45,12.8 45.1,12.8 L45.3,13 L46.2,13.7 C46.3,13.8 46.3,13.8 46.3,13.8 C46.3,13.8 46.3,13.9 46.3,13.9 C46.3,13.9 46.3,14 46.2,14 L45.7,14.1 Z M47.1,6.3 L47.1,4.3 L45.3,4.3 L45.3,6.3 L47.1,6.3 Z M47.1,9.1 L47.1,6.8 L45.3,6.8 L45.3,9.1 L47.1,9.1 Z M47.1,11.9 L47.1,9.6 L45.3,9.6 L45.3,11.9 L47.1,11.9 Z M46.8,13.7 L46.6,13.4 L46.5,13.3 C46.5,13.3 46.5,13.3 46.5,13.2 C46.5,13.1 46.5,13.1 46.6,13.1 C46.7,13.1 47,13.3 47.4,13.6 C47.9,13.9 48.2,14.3 48.3,14.6 C48.4,14.9 48.6,15.2 48.6,15.5 C48.6,15.7 48.6,15.8 48.5,15.9 C48.5,16 48.4,16.2 48.3,16.3 C48.2,16.4 48.1,16.5 47.9,16.5 C47.7,16.5 47.6,16.4 47.5,16.2 C47.4,16 47.3,15.8 47.3,15.6 L47.3,15 C47.3,14.7 47.2,14.5 47.1,14.3 C47.1,14.1 47,13.9 46.8,13.7 Z M51,6.9 L53.6,6.9 L54.1,6 C54.2,5.9 54.3,5.8 54.3,5.8 C54.3,5.8 54.4,5.9 54.5,6 L55.3,7.2 C55.4,7.3 55.4,7.3 55.4,7.4 C55.4,7.5 55.3,7.5 55.3,7.5 L54,7.5 C54,7.6 53.9,7.6 53.9,7.7 L53.8,7.8 L53.7,7.9 L53.7,16.1 L53.7,17.5 C53.6,17.8 53.5,18 53.3,18.1 C53.1,18.2 53,18.2 52.8,18.2 C52.6,18.2 52.5,18.2 52.5,18.1 C52.4,18 52.4,17.9 52.4,17.8 L52.5,15.8 L52.5,7.5 L51,7.5 C51,8.6 51,9.5 50.9,10.2 C50.8,10.9 50.8,11.6 50.7,12.2 C50.6,12.8 50.5,13.4 50.3,13.9 C50.1,14.4 49.9,14.9 49.7,15.3 C49.5,15.7 49.3,16.1 49,16.4 L48.4,17.2 C48.3,17.4 48.2,17.5 48.1,17.6 L47.8,17.9 C47.8,18 47.7,18 47.7,18 C47.7,18 47.6,18 47.6,18 C47.6,18 47.6,18 47.6,17.9 C47.6,17.8 47.6,17.8 47.7,17.7 L48,17.3 C48.3,16.9 48.6,16.4 48.9,15.8 C49.2,15.3 49.3,14.7 49.5,14 C49.7,13.3 49.7,12.7 49.8,12.2 C49.9,11.7 49.9,11.1 49.9,10.2 C49.9,9.4 49.9,8.7 49.9,8 C49.9,7.3 49.9,6.9 49.9,6.6 C49.9,6.2 49.9,5.9 49.9,5.6 L49.9,3.5 L49.9,3.3 L49.8,1.8 C49.8,1.8 49.8,1.8 49.8,1.7 L50,1.9 L51.2,2.7 C51.8,2.4 52.2,2 52.6,1.7 C53,1.4 53.2,1.2 53.3,1 L53.6,0.6 C53.7,0.5 53.8,0.4 53.8,0.4 C53.8,0.4 53.9,0.5 54,0.7 L54.7,1.8 C54.8,1.9 54.8,2 54.8,2.1 C54.8,2.2 54.7,2.2 54.6,2.2 L54.2,2.2 C54.1,2.2 53.8,2.3 53.4,2.4 L52.2,2.6 L51,3.1 L51,6.9 Z" id="Shape"></path>
                <polygon id="Shape" points="65.1 8.2 65.1 9.9 56.7 9.9 56.7 8.2"></polygon>
                <path d="M68.4,8.1 L66.4,8.1 C66.2,8.1 66.2,8 66.1,7.8 C66.1,7.6 66.2,7.5 66.4,7.5 L68.4,7.5 L68.6,7.1 C68.7,6.9 68.8,6.8 68.8,6.8 C68.8,6.8 68.9,6.9 69.1,7 L69.7,7.6 C69.8,7.7 69.9,7.8 69.9,7.8 C69.9,7.8 70,8 70,8.1 C70,8.1 69.9,8.2 69.8,8.4 L69.5,8.8 L69.5,14.5 C69.8,14.7 70.2,14.9 70.7,15.2 C71.2,15.4 71.6,15.6 72,15.7 C72.4,15.8 73,15.8 73.7,15.8 C75.1,15.8 76.1,15.7 76.9,15.6 C77.7,15.5 78.2,15.4 78.4,15.3 L79,15 C79,15 79.1,15 79.1,15 C79.1,15 79.2,15 79.2,15.1 C79.2,15.2 79.2,15.2 79.1,15.3 L78.9,15.6 C78.7,15.9 78.6,16.1 78.5,16.4 C78.4,16.7 78.4,16.8 78.4,17 C78.4,17.1 78.4,17.2 78.3,17.3 C78.3,17.4 78.3,17.4 78.2,17.4 C78.2,17.4 78,17.4 77.8,17.4 C77.8,17.4 77.6,17.4 77.3,17.4 C77,17.4 76.5,17.4 75.8,17.4 L73.7,17.4 C72.9,17.4 72.3,17.3 71.8,17.1 C71.3,16.9 70.9,16.6 70.5,16.3 L69.5,15.4 C69.2,15.2 69,15 68.8,15 C68.5,15 68.2,15.2 67.9,15.6 C67.6,16 67.5,16.3 67.4,16.5 L67.1,17 C67,17.1 67,17.2 67,17.2 C67,17.2 67,17.1 66.9,17 L66.3,15.4 C66.3,15.3 66.3,15.3 66.2,15.2 C66.2,15.2 66.3,15.1 66.4,15.1 L66.8,14.9 C67.2,14.7 67.7,14.5 68.2,14.4 L68.2,8.1 L68.4,8.1 Z M67.3,1.4 C67.2,1.3 67.2,1.2 67.2,1.2 C67.2,1.2 67.3,1.1 67.3,1.1 C67.3,1.1 67.5,1.1 67.7,1.2 C67.9,1.3 68.2,1.4 68.5,1.5 C68.8,1.6 69,1.9 69.2,2.3 C69.4,2.7 69.5,3 69.5,3.3 C69.5,3.6 69.4,3.8 69.3,4.1 C69.2,4.4 69,4.4 68.7,4.4 C68.5,4.4 68.4,4.3 68.3,4.2 C68.2,4.1 68.1,4 68.1,3.9 C68.1,3.8 68,3.5 68,3.1 C68,2.7 67.9,2.4 67.8,2.2 C67.7,2 67.6,1.7 67.3,1.4 Z M73.4,6.6 C73.4,6.7 73.4,6.8 73.4,6.8 C73.4,6.8 73.4,7.2 73.4,7.7 C73.4,8.2 73.2,9 73,9.9 C72.8,10.8 72.5,11.5 72.1,12.1 C71.7,12.7 71.4,13.2 71,13.7 L70.6,14.2 C70.4,14.4 70.3,14.5 70.3,14.5 C70.3,14.5 70.2,14.5 70.2,14.5 C70.2,14.5 70.2,14.5 70.2,14.4 C70.2,14.4 70.2,14.3 70.2,14.2 L70.4,13.8 L70.7,13.3 C71.3,12.2 71.6,11.1 71.8,9.8 C72,8.6 72.1,7.4 72.1,6.4 C72.1,5.4 72.2,4.6 72.2,3.9 C72.2,3.5 72.2,3 72.2,2.6 L69.9,2.6 C69.8,2.6 69.7,2.5 69.7,2.3 C69.7,2.1 69.7,2 69.9,2 L76.7,2 L77.1,1.2 C77.2,1.1 77.3,1 77.4,1 C77.4,1 77.6,1.1 77.8,1.3 L78.5,2.1 C78.7,2.3 78.8,2.4 78.8,2.5 C78.8,2.6 78.8,2.6 78.7,2.6 L77.4,2.6 L73.9,2.6 L73.5,3 L73.4,6 L76.1,6 L76.4,5.6 C76.5,5.4 76.6,5.3 76.6,5.3 C76.6,5.3 76.7,5.4 76.9,5.5 L77.5,6.1 C77.7,6.3 77.8,6.4 77.8,6.4 C77.8,6.4 77.8,6.5 77.8,6.5 C77.8,6.5 77.7,6.6 77.6,6.8 L77.3,7.1 C77.3,7.6 77.3,8.1 77.3,8.7 C77.3,9.3 77.3,9.9 77.2,10.6 C77.2,11.3 77.1,12 77,12.5 C76.9,13.1 76.7,13.5 76.6,13.7 C76.5,13.9 76.2,14.2 76,14.3 C75.8,14.5 75.6,14.6 75.4,14.6 C75.2,14.7 75.1,14.7 75.1,14.7 C75.1,14.7 75,14.7 75,14.6 C75,14.5 75,14.5 74.9,14.3 C74.8,14.1 74.8,14 74.7,13.7 C74.6,13.4 74.4,13.2 74.2,13.1 L73.7,13 C73.7,13 73.6,12.9 73.6,12.9 C73.6,12.8 73.6,12.8 73.6,12.8 C73.6,12.8 73.6,12.7 73.6,12.7 C73.6,12.7 73.7,12.6 73.8,12.7 L74.5,12.9 C74.7,13 75,13 75.1,13 C75.3,13 75.5,12.8 75.6,12.5 C75.8,12.2 75.9,11.7 75.9,11 C76,10.3 76,9.6 76,8.9 C76,8.2 76,7.7 76.1,7.2 L76.1,6.9 L76.1,6.6 L73.4,6.6 Z" id="Shape"></path>
                <path d="M83.2,1.8 L89.2,1.8 L89.5,1.4 L89.7,1.1 C89.7,1.1 89.7,1.1 89.8,1.1 C89.8,1.1 89.9,1.1 89.9,1.2 L90.1,1.4 L90.6,1.9 C90.8,1.9 90.9,2 90.9,2 C90.9,2.1 91,2.1 91,2.2 C91,2.2 91,2.3 90.9,2.4 L90.6,2.8 L90.6,6.8 L90.7,8.6 C90.7,8.7 90.7,8.8 90.6,8.8 C90.5,8.8 90.4,9 90.3,9.1 C90.2,9.2 90,9.2 89.7,9.2 C89.4,9.2 89.3,9.1 89.3,8.8 L89.3,7.9 L83.1,7.9 L83.1,14.2 C83.1,14.4 83.1,14.6 83.2,14.7 C83.3,14.9 83.5,15 83.9,15.1 C84.3,15.2 85.3,15.3 87,15.3 C88.9,15.3 90,15.2 90.3,15 C90.6,14.8 90.8,14.6 91,14.4 C91.1,14.2 91.3,13.8 91.5,13.1 L91.9,11.7 C91.9,11.6 92,11.5 92,11.5 C92,11.5 92.1,11.5 92.1,11.6 C92.1,11.7 92.1,11.7 92.1,11.7 C92.1,11.7 92.1,11.8 92.1,11.8 L91.9,13 C91.8,13.4 91.8,13.8 91.8,14 C91.8,14.3 91.9,14.5 91.9,14.7 L92.1,15.1 C92.2,15.2 92.2,15.4 92.2,15.5 C92.2,15.6 92.2,15.8 92.1,15.9 C92,16.1 91.8,16.3 91.4,16.5 C91,16.8 89.6,16.9 87.2,16.9 C86.8,16.9 86,16.9 84.8,16.8 C83.6,16.7 82.8,16.6 82.5,16.3 C82.2,16 82,15.7 82,15.5 C82,15.3 81.9,14.9 81.9,14.6 L81.9,3.2 L81.8,1.1 C81.8,1.1 81.8,1 81.9,1 L82,1.1 L83.2,1.8 Z M85.5,7.4 L85.5,2.3 L83.1,2.3 L83.1,7.4 L85.5,7.4 Z M89.3,7.4 L89.3,2.3 L86.9,2.3 L86.7,2.6 L86.7,7.4 L89.3,7.4 Z" id="Shape"></path>
                <path d="M97.3,6.5 L97.3,3.7 L95.2,3.7 L95.1,3.7 C95.1,3.7 95,3.7 95,3.6 C95,3.6 95,3.5 94.9,3.4 C94.8,3.3 95,3.2 95.1,3.2 L97.2,3.2 L97.2,2.2 L97.1,0.5 C97.1,0.5 97.1,0.5 97.1,0.5 C97.1,0.5 97.2,0.5 97.3,0.5 L98.6,0.9 C98.6,0.9 98.6,0.9 98.6,0.9 C98.6,0.9 98.6,0.9 98.6,1 C98.6,1 98.6,1.1 98.5,1.1 L98.2,1.4 L98.2,3.2 L99,3.2 L99.4,2.5 C99.4,2.4 99.5,2.4 99.5,2.4 C99.5,2.4 99.5,2.4 99.6,2.4 L100.4,3.5 C100.4,3.5 100.4,3.6 100.5,3.6 C100.6,3.6 100.5,3.7 100.3,3.7 L98.2,3.7 L98.2,6.5 L99.2,6.5 L99.6,5.7 C99.6,5.6 99.7,5.6 99.7,5.6 C99.7,5.6 99.7,5.6 99.8,5.7 L100.6,6.8 L100.6,6.9 C100.6,6.9 100.6,6.9 100.6,6.9 C100.6,6.9 100.6,6.9 100.6,6.9 C100.6,6.9 100.5,6.9 100.5,6.9 L99.3,6.9 L99.2,6.9 C99.2,7 99.1,7.1 99.1,7.1 C99.1,7.1 99,7.2 99,7.2 L99,16.2 C99,16.4 99,16.6 99,16.7 C99,16.8 98.9,16.9 98.6,17.1 C98.4,17.2 98.2,17.3 98.1,17.3 L97.9,17.3 C97.8,17.3 97.7,17.3 97.7,17.3 L97.6,17 C97.6,16.8 97.5,16.7 97.5,16.5 C97.5,16.3 97.3,16.2 97.1,16.1 L97,16.1 C97,16.1 97,16.1 97,16.1 C97,16.1 97,16.1 97,16 C97,15.9 97,15.9 97.1,15.9 L97.7,16 C98,16 98.1,16.1 98.2,16 C98.3,16 98.3,16 98.3,15.9 C98.3,15.9 98.3,15.7 98.3,15.5 L98.3,7.1 L97.8,7.1 C97.8,7.2 97.7,7.3 97.6,7.4 C97.6,8.2 97.6,8.8 97.6,9.3 C97.6,9.8 97.6,10.4 97.6,11 C97.6,11.7 97.6,12.3 97.5,12.8 C97.4,13.8 97.1,14.6 96.8,15.1 C96.5,15.6 96.1,16.2 95.8,16.6 C95.4,17 95.1,17.3 94.8,17.6 L94.6,17.8 C94.6,17.8 94.5,17.8 94.5,17.8 C94.5,17.8 94.4,17.8 94.4,17.8 C94.4,17.8 94.4,17.8 94.4,17.8 C94.4,17.8 94.4,17.7 94.5,17.7 L94.8,17.3 C95.1,17 95.4,16.6 95.7,16 C96,15.5 96.3,14.8 96.4,14.1 C96.5,13.4 96.6,12.7 96.6,12.1 C96.6,11.5 96.6,10.9 96.6,10.3 C96.6,9.7 96.6,9.1 96.6,8.6 L96.6,7.7 L96.6,7.1 L94.8,7.1 C94.7,7.1 94.6,7 94.6,6.8 C94.6,6.6 94.6,6.5 94.8,6.5 L97.3,6.5 Z M96.2,9.8 C96.1,10.4 96,10.9 95.9,11.3 C95.8,11.7 95.6,12.2 95.4,12.9 C95.2,13.6 95.1,13.9 95,14.1 L94.8,14.6 C94.8,14.7 94.7,14.7 94.7,14.7 C94.7,14.7 94.6,14.7 94.6,14.7 C94.6,14.7 94.6,14.7 94.6,14.7 C94.6,14.7 94.6,14.7 94.6,14.7 L94.6,14.6 L94.7,14 C94.8,13.6 94.9,13 95,12.3 C95.1,11.5 95.2,10.7 95.2,9.9 L95.2,9.2 L95.2,8.8 C95.2,8.8 95.2,8.8 95.2,8.8 L95.3,8.8 L96.4,9.4 C96.5,9.4 96.5,9.5 96.5,9.5 C96.5,9.5 96.5,9.6 96.4,9.7 L96.2,9.8 Z M101,3.6 C101,3.5 100.9,3.4 100.9,3.3 C100.9,3.2 101,3.1 101.1,3.1 L102.5,3.1 L102.5,1.7 L102.5,0.5 C102.5,0.5 102.5,0.5 102.5,0.5 L102.6,0.5 L103.8,0.9 C103.9,0.9 103.9,1 103.9,1 C103.9,1.1 103.9,1.1 103.8,1.2 L103.5,1.5 L103.5,3.1 L104.6,3.1 L105,2.3 C105.1,2.1 105.1,2 105.2,2 C105.2,2 105.3,2 105.3,2.1 L106.2,3.3 C106.3,3.5 106.3,3.6 106.1,3.6 L103.6,3.6 L103.6,6.4 L105.3,6.4 L105.8,5.5 C105.8,5.4 105.9,5.4 105.9,5.4 C105.9,5.4 106,5.4 106,5.5 L106.8,6.7 C106.8,6.7 106.8,6.8 106.8,6.8 C106.8,6.9 106.8,6.9 106.7,6.9 L105.9,6.9 L105.2,6.9 C105.2,7 105.1,7.1 105.1,7.1 C105.1,7.1 105,7.2 104.9,7.2 L104.9,16.3 C104.9,16.6 104.9,16.8 104.9,17 C104.9,17.1 104.7,17.3 104.5,17.4 C104.3,17.5 104.1,17.6 104,17.6 L103.7,17.7 C103.6,17.7 103.5,17.7 103.5,17.7 C103.5,17.7 103.5,17.6 103.5,17.5 L103.4,17.1 C103.3,16.8 103.2,16.6 103,16.5 L102.5,16.3 C102.4,16.3 102.4,16.2 102.4,16.1 C102.4,16 102.4,16 102.5,16 L103.1,16.1 C103.6,16.1 103.8,16.1 103.8,16.1 C103.8,16.1 103.8,15.9 103.8,15.7 L103.8,7.1 L103.3,7.1 C103.3,7.2 103.3,7.3 103.2,7.3 C103.1,7.3 103.1,7.4 103,7.5 C103,8.5 103,9.7 103,10.9 C103,12.2 102.8,13.3 102.4,14.4 C102,15.5 101.1,16.5 99.6,17.4 L99.2,17.6 C99.2,17.6 99.1,17.6 99.1,17.6 C99.1,17.6 99.1,17.6 99,17.5 C99,17.4 99,17.4 99.1,17.3 L99.4,17 C100.4,16.1 101.1,15.2 101.4,14.3 C101.7,13.4 101.9,12.4 101.9,11.4 C101.9,10.4 101.9,9.7 101.9,9.2 L101.9,7.1 L100.9,7.1 C100.8,7.1 100.7,7 100.7,6.8 C100.7,6.6 100.7,6.5 100.9,6.5 L102.2,6.5 L102.2,3.7 L101,3.6 Z M100.6,12.1 C100.6,12.5 100.6,12.8 100.4,13 C100.2,13.2 100.1,13.3 100,13.3 C99.8,13.3 99.7,13.2 99.6,13.1 C99.5,13 99.5,12.8 99.5,12.7 C99.5,12.6 99.5,12.4 99.6,12 C99.7,11.6 99.7,11.3 99.7,11 C99.7,10.8 99.7,10.6 99.7,10.3 C99.7,10.1 99.6,9.9 99.6,9.7 C99.5,9.5 99.5,9.4 99.5,9.3 C99.5,9.2 99.5,9.2 99.6,9.2 C99.6,9.2 99.7,9.3 99.8,9.4 C99.9,9.5 100,9.7 100.1,10 C100.2,10.3 100.4,10.6 100.5,11 C100.6,11.4 100.6,11.7 100.6,12.1 Z M101.9,9.8 C101.8,10.4 101.7,10.9 101.6,11.4 C101.5,11.9 101.4,12.4 101.2,13 C101,13.7 100.9,14.1 100.8,14.3 L100.6,14.8 C100.6,14.9 100.6,14.9 100.5,14.9 C100.4,14.9 100.4,14.9 100.4,14.9 C100.4,14.9 100.4,14.9 100.4,14.9 C100.4,14.9 100.4,14.9 100.4,14.9 C100.4,14.9 100.4,14.9 100.4,14.8 L100.5,14.2 C100.6,13.8 100.7,13.2 100.8,12.4 C100.9,11.6 101,10.7 101,9.8 L101,9.1 L101,8.7 C101,8.7 101,8.7 101,8.7 C101,8.7 101,8.7 101.1,8.7 L102.1,9.3 C102.2,9.3 102.2,9.4 102.2,9.4 C102.2,9.5 102.2,9.5 102.1,9.5 L101.9,9.8 Z M107,13.5 C107,13.9 107,14.2 106.8,14.4 C106.7,14.6 106.5,14.7 106.3,14.7 C106.1,14.7 105.9,14.5 105.8,14.2 C105.7,14.1 105.7,13.8 105.7,13.3 C105.7,12.8 105.7,12.6 105.7,12.6 C105.7,12.1 105.6,11.6 105.6,11.3 C105.6,11 105.4,10.6 105.3,10.3 C105.2,10 105.1,9.8 105,9.7 C104.9,9.6 104.9,9.5 104.9,9.3 C104.9,9.1 105,9.2 105.1,9.4 C105.4,9.8 105.7,10.3 106.1,11 C106.8,11.6 107,12.4 107,13.5 Z" id="Shape"></path>
                <path d="M114.1,1.6 L114.9,5 C114.9,5.2 114.9,5.3 114.8,5.4 C114.7,5.5 114.6,5.4 114.5,5.2 L114.3,4.7 C114.2,4.4 114,4 113.8,3.5 C113.6,3 113.2,2.6 112.8,2.2 C112.4,1.8 112,1.6 111.5,1.6 C111,1.6 110.6,1.8 110.3,2.2 C110,2.6 109.8,3.2 109.7,3.9 C109.6,4.6 109.7,5.2 110,5.7 C110.2,6.1 110.4,6.4 110.8,6.6 C111.2,6.9 111.6,7.1 112.3,7.4 C112.9,7.7 113.4,8 113.9,8.3 C114.3,8.6 114.7,9 114.9,9.6 C115.2,10.2 115.3,10.8 115.3,11.5 C115.3,12.2 115.2,12.9 114.9,13.5 C114.7,14.1 114.3,14.5 113.9,14.9 C113.5,15.3 113,15.5 112.5,15.5 C112.2,15.5 111.8,15.5 111.5,15.5 C111.2,15.5 111,15.3 110.8,15.2 L110,15 C109.8,14.9 109.7,14.9 109.7,15 C109.6,15 109.6,15.1 109.6,15.2 L109.5,15.4 C109.5,15.5 109.4,15.6 109.3,15.6 C109.2,15.6 109.1,15.5 109.1,15.3 L108.1,11.4 C108,11.2 108.1,11 108.2,10.9 C108.3,10.8 108.4,10.9 108.5,11 L108.7,11.6 C108.8,11.9 109,12.3 109.3,12.9 C109.6,13.5 110,13.9 110.4,14.3 C110.9,14.7 111.4,14.9 111.9,14.9 C112.3,14.9 112.6,14.8 112.9,14.6 C113.2,14.4 113.5,14.1 113.7,13.6 C113.9,13.1 114,12.6 114,11.9 C114,11.3 113.9,10.9 113.7,10.5 C113.5,10.1 113.2,9.8 112.9,9.6 C112.5,9.3 112,9.1 111.4,8.8 C110.8,8.5 110.3,8.2 109.8,7.9 C109.4,7.6 109,7.2 108.8,6.6 C108.5,6.1 108.4,5.4 108.4,4.7 C108.4,4 108.5,3.3 108.8,2.6 C109.1,2 109.4,1.6 109.8,1.2 C110.2,0.8 110.7,0.7 111.3,0.7 C111.6,0.7 111.9,0.8 112.1,0.9 C112.3,1 112.5,1.1 112.8,1.3 C113.1,1.5 113.2,1.5 113.3,1.5 C113.4,1.5 113.4,1.4 113.5,1.4 L113.6,1.2 C113.6,1.1 113.7,1.1 113.8,1.1 C114,1.3 114.1,1.4 114.1,1.6 Z" id="Shape"></path>
                <path d="M117.1,6.1 L119,6.6 C119.2,6.3 119.2,6.1 119.3,6 C119.3,5.9 119.4,5.6 119.6,5.3 L120,4.3 L120,4.2 C120,4.2 120.1,4.2 120.1,4.3 L121.3,5.5 C121.4,5.6 121.4,5.6 121.4,5.7 C121.4,5.8 121.3,5.8 121.2,5.9 L121,5.9 C120.1,7.3 119.5,8.2 119.3,8.5 L117.7,10.7 C118.3,10.7 118.8,10.6 119.4,10.6 C120,10.6 120.3,10.5 120.5,10.5 L121.2,10.4 C121.3,10.4 121.3,10.4 121.3,10.5 C121.3,10.6 121.3,10.6 121.2,10.7 L120.5,11 C119,11.6 118.1,12 117.6,12.2 L116.9,12.5 C116.8,12.6 116.7,12.6 116.7,12.6 C116.7,12.6 116.7,12.5 116.6,12.4 L116.2,11 C116.2,10.9 116.2,10.9 116.2,10.8 C116.2,10.7 116.2,10.7 116.3,10.7 L116.5,10.6 C116.6,10.6 116.8,10.5 117,10.3 C117.2,10.1 117.6,9.4 118.3,8.2 L118.9,7.1 C118.2,7.2 117.6,7.3 117.1,7.5 L116.7,7.6 L116.6,7.6 C116.6,7.6 116.6,7.6 116.5,7.5 L116.2,6.1 C116.2,6 116.2,6 116.2,6 C116.2,6 116.2,5.9 116.3,5.9 L116.5,5.8 C116.8,5.7 117.1,5.1 117.5,4.2 C117.9,3.3 118.2,2.3 118.5,1.4 L118.7,0.8 L118.8,0.6 C118.8,0.6 118.8,0.6 118.8,0.6 L118.9,0.7 L120.2,1.7 C120.3,1.8 120.3,1.8 120.3,1.9 C120.3,2 120.3,2 120.2,2 L119.6,2 C118.8,3.4 117.9,4.8 117.1,6.1 Z M116.9,14.8 C118.7,14.2 119.8,13.7 120.4,13.5 L120.9,13.3 C120.9,13.3 121,13.3 121,13.3 C121,13.3 121.1,13.4 121,13.4 C120.9,13.4 121,13.5 120.9,13.6 L120.5,14 C118.8,15.4 117.8,16.2 117.5,16.4 L116.9,16.9 C116.8,17 116.7,17 116.7,17 C116.7,17 116.7,16.9 116.7,16.9 L116.3,15.4 L116.2,15.1 C116.2,15.1 116.2,15 116.2,15 L116.3,15 L116.9,14.8 Z M120.8,2.7 C120.7,2.7 120.6,2.6 120.6,2.4 C120.6,2.2 120.6,2.1 120.8,2.1 L125.4,2.1 L125.8,1.4 C125.8,1.3 125.9,1.3 125.9,1.3 C125.9,1.3 126,1.3 126,1.4 L127,2.4 C127,2.4 127.1,2.5 127.1,2.5 C127.1,2.5 127.1,2.6 127.1,2.6 C127.1,2.6 127.1,2.7 127,2.7 L126.6,3 C126.3,4.1 126.1,4.8 126,5.4 C125.9,6 125.7,6.5 125.5,7.1 L126.6,7.1 L126.9,6.6 C126.9,6.5 127,6.5 127,6.5 C127,6.5 127.1,6.5 127.2,6.6 L128.2,7.6 C128.2,7.7 128.3,7.7 128.3,7.7 C128.3,7.7 128.3,7.7 128.3,7.7 C128.3,7.7 128.3,7.7 128.3,7.7 C128.3,7.7 128.3,7.7 128.3,7.8 L128,8.1 C127.4,10.5 126.9,11.9 126.6,12.6 L125.9,14.1 C126.1,14.4 126.4,14.7 126.6,15 C126.9,15.3 127.2,15.5 127.5,15.7 C127.9,15.9 128.1,16 128.3,16.1 L128.7,16.2 C128.8,16.2 128.8,16.3 128.8,16.3 C128.8,16.4 128.8,16.4 128.7,16.5 L128.3,16.7 C127.9,16.9 127.6,17.1 127.5,17.3 L127.2,17.7 C127.1,17.8 127.1,17.8 127.1,17.8 C127.1,17.8 127.1,17.8 127,17.7 L126.8,17.5 C126.2,16.9 125.7,16.1 125.1,15.2 C124.8,15.5 124.4,15.9 123.8,16.4 C123.3,16.9 122.4,17.3 121.3,17.7 L120.8,17.9 C120.8,17.9 120.8,17.9 120.7,17.9 C120.7,17.9 120.7,17.9 120.7,17.9 C120.7,17.9 120.7,17.8 120.7,17.8 C120.7,17.8 120.7,17.7 120.8,17.7 L121.2,17.5 C122.3,16.8 123.4,15.7 124.5,14.2 C124.2,13.5 124,12.8 123.8,12 C123.6,11.2 123.4,10.4 123.3,9.5 L123,7.8 C122.9,9 122.9,10.2 122.8,11.2 C122.7,12.2 122.5,13.3 122.1,14.3 C121.7,15.3 121.2,16.2 120.6,16.8 C120,17.4 119.6,17.8 119.4,18 L119,18.3 C118.9,18.4 118.9,18.4 118.8,18.3 C118.7,18.2 118.8,18.2 118.8,18.2 C118.8,18.2 118.8,18.1 118.9,18.1 L119.3,17.7 C119.6,17.3 120,16.8 120.4,16.2 C120.8,15.6 121.2,14.6 121.4,13.2 C121.6,11.8 121.8,10.6 121.9,9.4 C121.9,8.2 122,7 122,5.7 C122,4.4 122,3.8 122,3.7 L122,2.8 L120.8,2.8 L120.8,2.7 Z M125.5,2.7 L123.5,2.7 C123.5,2.8 123.4,2.8 123.4,2.9 C123.4,2.9 123.3,3 123.2,3.1 C123.2,3.7 123.2,4.2 123.2,4.5 C123.2,4.8 123.2,5.4 123.2,6.1 C123.2,6.9 123.3,7.9 123.6,9.1 C123.9,10.3 124.2,11.4 124.6,12.3 L125,13.2 C125.1,12.9 125.3,12.6 125.4,12.2 C125.5,11.8 125.7,11.3 125.9,10.5 C126.1,9.7 126.2,9.2 126.3,8.7 C126.4,8.2 126.4,7.9 126.5,7.8 L125.3,7.8 L125,8.2 C124.9,8.3 124.9,8.4 124.9,8.4 C124.9,8.4 124.9,8.4 124.8,8.4 L124,7.4 C124,7.4 124,7.4 124,7.3 C124,7.2 124,7.3 124,7.2 C124,7.2 124,7.1 124.1,7.1 L124.3,6.9 C124.4,6.9 124.4,6.8 124.4,6.7 C124.4,6.6 124.5,6.5 124.5,6.3 L124.6,5.8 L125.5,2.7 Z" id="Shape"></path>
                <path d="M131.6,3.4 L131.9,1.9 L132.1,0.5 L132.1,0.1 C132.1,0.1 132.2,0.1 132.3,0.2 L133.6,0.8 C133.7,0.8 133.7,0.9 133.7,0.9 C133.7,1 133.7,1 133.6,1.1 L133.2,1.4 L132.7,3.4 L134.1,3.4 L134.4,2.7 C134.5,2.6 134.5,2.5 134.5,2.5 C134.5,2.5 134.6,2.5 134.6,2.6 L135.5,3.6 C135.5,3.7 135.6,3.7 135.5,3.8 C135.4,3.9 135.5,3.9 135.4,3.9 L132.4,3.9 L131.3,8.1 L132.5,8.1 L132.5,6.8 L132.4,5.2 C132.4,5.2 132.4,5.1 132.5,5.1 L132.7,5.2 L133.8,5.6 C133.9,5.6 134,5.7 133.9,5.8 C133.9,5.9 133.9,5.9 133.8,6 L133.5,6.4 L133.5,8.3 L133.8,8.3 L134.2,7.5 C134.3,7.4 134.3,7.3 134.3,7.3 C134.3,7.3 134.4,7.3 134.4,7.4 L135.2,8.5 C135.3,8.6 135.3,8.7 135.3,8.7 C135.3,8.7 135.3,8.8 135.2,8.8 L133.4,8.8 L133.4,12.3 C133.7,12.2 133.9,12.1 134,12.1 L135.2,11.6 L135.6,11.4 C135.7,11.4 135.7,11.4 135.7,11.5 C135.7,11.6 135.7,11.6 135.6,11.7 L135.2,12 C135.1,12 134.5,12.4 133.3,13.2 L133.3,15.9 L133.4,17.7 C133.3,18 133.1,18.2 132.8,18.2 C132.5,18.2 132.4,18.2 132.3,18.1 C132.3,18 132.2,17.9 132.2,17.9 L132.3,16.2 L132.3,13.9 C132.1,14 131.7,14.3 131.1,14.7 L130.6,15 L130.3,15.2 C130.3,15.2 130.3,15.2 130.2,15.2 C130.2,15.2 130.2,15.2 130.2,15.2 L130.2,15.1 L129.7,13.3 L129.7,13.2 C129.7,13.2 129.7,13.1 129.7,13.1 L130,13.1 L130.5,13 C130.9,12.9 131.5,12.8 132.3,12.6 L132.3,8.7 L131,8.7 L130.8,9.2 C130.7,9.4 130.6,9.6 130.6,9.6 C130.6,9.6 130.6,9.6 130.6,9.6 C130.6,9.6 130.5,9.6 130.5,9.4 L129.8,8.6 C129.8,8.6 129.7,8.5 129.7,8.5 C129.7,8.5 129.7,8.4 129.8,8.3 C129.9,8.2 129.9,8.1 130,7.9 C130.1,7.7 130.1,7.5 130.2,7.4 L130.5,6.4 C130.6,6.2 130.7,5.4 131.1,3.9 L129.7,3.9 L129.6,3.9 C130,3.9 130,3.8 130,3.6 C130,3.5 130,3.4 130.2,3.4 L131.6,3.4 Z M137.6,10.4 C137.6,10.9 137.6,11.3 137.6,11.6 C137.6,11.9 137.5,12.4 137.5,12.9 C137.5,13.4 137.3,14 137.1,14.7 C136.9,15.4 136.6,16 136.1,16.5 C135.6,17 135.2,17.4 134.9,17.5 L134.4,17.9 C134.3,18 134.2,18 134.2,17.9 C134.2,17.8 134.2,17.7 134.3,17.7 L134.7,17.2 C135.1,16.8 135.5,16.2 135.8,15.5 C136.1,14.8 136.3,14.1 136.4,13.4 C136.5,12.7 136.5,12.2 136.5,11.8 C136.5,11.4 136.5,11.1 136.5,10.9 C136.5,10.7 136.5,10.5 136.5,10.4 L136.5,9.8 L136.5,9.4 C136.5,9.4 136.5,9.4 136.5,9.4 C136.5,9.4 136.6,9.4 136.7,9.4 L137.9,9.8 C137.9,9.8 138,9.8 138,9.9 C138,10 138,9.9 138,9.9 C138,9.9 138,9.9 138,10 C138,10.1 138,10.1 138,10.1 L137.6,10.4 Z M140.6,5.2 L141.1,4.2 C141.2,4.1 141.2,4 141.3,4 C141.4,4 141.4,4.1 141.5,4.1 L142.4,5.2 C142.5,5.3 142.5,5.4 142.5,5.5 C142.5,5.6 142.4,5.6 142.4,5.6 L141.3,5.6 L139.3,5.6 C139.4,5.9 139.5,6 139.5,6.1 C139.5,6.2 139.7,6.4 139.9,6.9 C140.1,7.3 140.5,7.8 141,8.2 C141.5,8.6 142,8.9 142.5,9.1 L143,9.3 C143.1,9.3 143.1,9.4 143.1,9.4 C143.1,9.5 143.1,9.5 143,9.5 L142.7,9.6 C142.4,9.7 142.2,9.9 142.1,10.1 L141.9,10.5 C141.8,10.6 141.8,10.7 141.7,10.7 C141.6,10.7 141.4,10.5 141.1,10.2 C140.8,9.9 140.6,9.6 140.4,9.3 C140.2,9 140.1,8.7 139.9,8.4 C139.7,8.1 139.6,7.7 139.4,7.3 C139.3,6.9 139.2,6.6 139.1,6.2 C139,5.8 139,5.8 139,5.7 L138.4,5.7 C138.3,5.9 138.3,6 138.2,6.1 L137.8,7 C137.5,7.7 137,8.4 136.5,9.1 C136,9.8 135.5,10.3 135.1,10.7 L134.7,11 C134.6,11.1 134.6,11.1 134.5,11 C134.5,10.9 134.5,10.8 134.6,10.7 L134.9,10.3 C135.1,10.1 135.2,9.9 135.4,9.6 C135.6,9.3 135.8,8.9 136.1,8.3 C136.4,7.7 136.6,7.3 136.7,7 C136.8,6.7 136.9,6.4 137,6.2 C137.1,6 137.2,5.7 137.2,5.6 L134.7,5.6 C134.6,5.6 134.5,5.5 134.5,5.3 C134.5,5.1 134.5,5 134.7,5 L137.3,5 C137.3,4.9 137.4,4.8 137.4,4.6 C137.4,4.4 137.5,4.3 137.6,4.1 C137.7,3.9 137.8,3.5 137.9,2.8 C136.8,3 136.2,3.1 135.9,3.1 L135.6,3.1 C135.5,3.1 135.5,3.1 135.5,3 C135.5,2.9 135.5,2.9 135.6,2.9 L136.1,2.8 C136.4,2.7 136.6,2.6 136.8,2.6 C137,2.6 137.4,2.3 138.2,2 C138.9,1.7 139.4,1.4 139.7,1.3 L140.3,0.9 C140.3,0.9 140.4,0.8 140.5,0.8 C140.6,0.7 140.6,0.7 140.6,0.7 C140.6,0.7 140.7,0.8 140.8,1 L141.6,2.1 C141.7,2.3 141.8,2.4 141.8,2.4 C141.8,2.4 141.7,2.5 141.6,2.5 L141.1,2.6 C140.8,2.7 140.5,2.7 140,2.8 C139.5,2.9 139.1,3 138.7,3 L139.4,3.4 C139.4,3.4 139.4,3.5 139.5,3.5 C139.6,3.5 139.5,3.6 139.4,3.6 L139.1,3.8 C138.9,4.2 138.8,4.5 138.7,4.8 C138.6,5.1 138.5,5.2 138.5,5.4 L140.6,5.4 L140.6,5.2 Z M140.4,10.7 L140.4,16 L140.5,17.5 C140.5,17.6 140.5,17.7 140.4,17.9 C140.3,18 140.2,18.1 139.9,18.1 C139.6,18.1 139.4,18.1 139.4,18 C139.4,17.9 139.3,17.8 139.3,17.7 L139.3,16.3 L139.3,11.2 L139.2,9.5 C139.2,9.5 139.3,9.4 139.3,9.4 L139.5,9.5 L140.5,9.9 C140.6,9.9 140.6,10 140.6,10 C140.6,10 140.6,10.1 140.5,10.2 L140.4,10.7 Z" id="Shape"></path>
                <path d="M150.2,12.6 L150.2,9.5 L147.3,9.5 L146.8,10.2 C146.7,10.3 146.7,10.3 146.7,10.2 L146,9 C145.9,8.9 145.9,8.8 145.9,8.8 C145.9,8.8 146,8.7 146.2,8.6 C146.3,8.5 146.4,8.4 146.5,8.3 C146.6,8.2 146.8,7.7 147,7.1 C147.3,6.4 147.5,5.9 147.6,5.5 C147.7,5.1 147.9,4.7 148.1,4.1 L144.9,4.1 C144.8,4.1 144.7,4 144.7,3.8 C144.7,3.6 144.8,3.5 144.9,3.5 L148.3,3.5 C148.3,3.5 148.4,3.1 148.6,2.5 C148.8,1.9 149,1.4 149,1 L149.2,0.4 L149.3,0 C149.3,0 149.3,0 149.3,0 L149.5,0.2 L150.9,1.1 C150.9,1.1 151,1.2 151,1.3 C151,1.4 151,1.4 150.9,1.5 L150.4,1.8 L149.7,3.7 L154,3.7 L154.5,2.7 C154.6,2.5 154.7,2.4 154.7,2.3 C154.7,2.2 154.8,2.3 154.9,2.5 L156,3.7 C156.1,3.8 156.1,3.9 156.1,4 C156.1,4.1 156.1,4.1 156,4.1 L155.5,4.1 L149.5,4.1 L147.5,9 L150.2,9 L150.2,7 L150.2,5.3 C150.2,5.3 150.3,5.2 150.3,5.2 L150.5,5.3 L151.9,5.9 C152,5.9 152,6 152,6.1 C152,6.2 152,6.2 151.9,6.3 L151.6,6.5 L151.6,9 L153.5,9 L154,8.1 C154.1,7.8 154.2,7.7 154.3,7.8 C154.4,7.9 154.4,7.9 154.6,8.1 L155.5,9.2 C155.6,9.3 155.6,9.4 155.6,9.5 C155.6,9.6 155.6,9.6 155.5,9.6 L151.7,9.6 L151.7,12.7 L154.9,12.7 L155.5,11.7 C155.6,11.6 155.6,11.5 155.7,11.5 C155.7,11.5 155.8,11.5 155.8,11.6 L156.8,12.8 C156.9,12.9 156.9,12.9 156.9,13 C156.9,13.1 156.9,13.1 156.9,13.2 C156.9,13.3 156.9,13.3 156.8,13.3 L155,13.3 L151.5,13.3 L151.5,16.2 L151.5,17.9 C151.5,18 151.5,18.1 151.4,18.1 C151.3,18.1 151.3,18.2 151.2,18.3 C151.1,18.4 150.9,18.4 150.7,18.4 C150.5,18.4 150.3,18.4 150.3,18.3 C150.3,18.2 150.2,18.1 150.2,17.9 L150.2,16.3 L150.2,13.3 L144.4,13.3 L144.3,13.3 C144.3,13.3 144.2,13.3 144.2,13.3 L144.2,13.2 C144.2,13 144.3,12.8 144.4,12.8 L150.2,12.8 L150.2,12.6 Z" id="Shape"></path>
            </g>
        </g>
    </g>
</svg>